<svg width="88" height="88" viewBox="0 0 88 88" fill="none" xmlns="http://www.w3.org/2000/svg">
<g clip-path="url(#clip0)">
<path d="M64.2442 27.3376L64.146 27.4357V63.7084H32.444V27.4357L32.3457 27.3376L48.2949 11.3906L64.2442 27.3376Z" fill="#4770AC"/>
<path d="M64.2442 27.3376L64.146 27.4357V63.7084H32.444V27.4357L32.3457 27.3376L48.2949 11.3906L64.2442 27.3376Z" fill="white" fill-opacity="0.25"/>
<path d="M62.5101 25.6055V12.7944H55.1406V18.2357" fill="#7F0102"/>
<path d="M62.5101 25.6055V12.7944H55.1406V18.2357" fill="white" fill-opacity="0.5"/>
<path d="M53.4719 33.3271H43.1182V47.8966H53.4719V33.3271Z" fill="#7F0102"/>
<path d="M53.4719 33.3271H43.1182V47.8966H53.4719V33.3271Z" fill="white" fill-opacity="0.5"/>
<path d="M80.4745 59.939L56.9421 74.8105C54.5765 76.3044 51.7516 76.8976 48.9863 76.4797L21.193 72.2804C19.7643 72.0652 18.303 72.3852 17.0949 73.1793L14.7493 74.7219L8.17884 61.8434L5.45166 56.4975C7.4465 55.2676 9.29118 53.8227 10.9513 52.1895C12.6115 50.5583 14.0891 48.7389 15.3515 46.7639C17.5686 43.2952 21.4136 41.1593 25.5299 41.2354C26.4667 41.2535 27.4053 41.3529 28.3331 41.5393L32.3969 42.3532V42.355L53.1333 46.511C55.0485 46.8961 56.3579 48.5763 56.3579 50.441C56.3579 50.7611 56.318 51.0866 56.2385 51.4103C55.7194 53.4992 53.6866 54.8411 51.5635 54.4956L36.0283 51.9709C35.822 51.9384 35.6195 51.922 35.417 51.922C33.5036 51.922 31.847 53.3816 31.668 55.3528C31.4889 57.315 32.8508 59.082 34.7931 59.4111L52.6866 62.4422C54.2763 62.7117 55.9111 62.4331 57.3236 61.6537L75.5319 51.5856C76.2751 51.1752 77.08 50.9799 77.8775 50.9799C79.4853 50.9799 81.0514 51.7792 81.9737 53.2242C83.4206 55.4919 82.7478 58.5031 80.4745 59.939Z" fill="#4770AC"/>
<path d="M80.4745 59.939L56.9421 74.8105C54.5765 76.3044 51.7516 76.8976 48.9863 76.4797L21.193 72.2804C19.7643 72.0652 18.303 72.3852 17.0949 73.1793L14.7493 74.7219L8.17884 61.8434L5.45166 56.4975C7.4465 55.2676 9.29118 53.8227 10.9513 52.1895C12.6115 50.5583 14.0891 48.7389 15.3515 46.7639C17.5686 43.2952 21.4136 41.1593 25.5299 41.2354C26.4667 41.2535 27.4053 41.3529 28.3331 41.5393L32.3969 42.3532V42.355L53.1333 46.511C55.0485 46.8961 56.3579 48.5763 56.3579 50.441C56.3579 50.7611 56.318 51.0866 56.2385 51.4103C55.7194 53.4992 53.6866 54.8411 51.5635 54.4956L36.0283 51.9709C35.822 51.9384 35.6195 51.922 35.417 51.922C33.5036 51.922 31.847 53.3816 31.668 55.3528C31.4889 57.315 32.8508 59.082 34.7931 59.4111L52.6866 62.4422C54.2763 62.7117 55.9111 62.4331 57.3236 61.6537L75.5319 51.5856C76.2751 51.1752 77.08 50.9799 77.8775 50.9799C79.4853 50.9799 81.0514 51.7792 81.9737 53.2242C83.4206 55.4919 82.7478 58.5031 80.4745 59.939Z" fill="white" fill-opacity="0.85"/>
<path d="M32.3969 42.353V42.3549C32.3969 42.3549 22.8099 42.279 17.113 52.3144C14.9608 56.1069 11.568 59.3169 8.17884 61.8434L5.45166 56.4975C7.4465 55.2677 9.29118 53.8227 10.9513 52.1895C12.6115 50.5583 14.0891 48.7389 15.3515 46.7639C17.5686 43.2952 21.4136 41.1593 25.5299 41.2354C26.4667 41.2535 27.4053 41.3529 28.3331 41.5393L32.3969 42.353Z" fill="#4770AC"/>
<path d="M32.3969 42.353V42.3549C32.3969 42.3549 22.8099 42.279 17.113 52.3144C14.9608 56.1069 11.568 59.3169 8.17884 61.8434L5.45166 56.4975C7.4465 55.2677 9.29118 53.8227 10.9513 52.1895C12.6115 50.5583 14.0891 48.7389 15.3515 46.7639C17.5686 43.2952 21.4136 41.1593 25.5299 41.2354C26.4667 41.2535 27.4053 41.3529 28.3331 41.5393L32.3969 42.353Z" fill="white" fill-opacity="0.5"/>
<path d="M57.6895 61.4502L65.1874 49.1623C66.0986 47.6712 67.6947 46.8354 69.3369 46.8354C70.1008 46.8354 70.876 47.0178 71.5958 47.397C73.4552 48.3764 74.4142 50.3886 74.1419 52.3545" fill="#4770AC"/>
<path d="M57.6895 61.4502L65.1874 49.1623C66.0986 47.6712 67.6947 46.8354 69.3369 46.8354C70.1008 46.8354 70.876 47.0178 71.5958 47.397C73.4552 48.3764 74.4142 50.3886 74.1419 52.3545" fill="white" fill-opacity="0.5"/>
<path d="M26.742 34.766L30.9924 30.5155V38.2588C30.9924 39.0079 31.5996 39.6152 32.3488 39.6152C33.098 39.6152 33.7052 39.0079 33.7052 38.2588V27.8029L48.2002 13.3078L54.0859 19.1936C54.0869 19.1945 62.6953 27.8029 62.6953 27.8029V43.83C62.6953 44.5791 63.3024 45.1864 64.0517 45.1864C64.8009 45.1864 65.4081 44.5791 65.4081 43.83V30.5157L69.6582 34.7658C69.9232 35.0307 70.2704 35.1632 70.6174 35.1632C70.9644 35.1632 71.3116 35.0308 71.5766 34.7658C72.1063 34.2362 72.1063 33.3772 71.5766 32.8477L63.7723 25.0434V12.7948C63.7723 12.0458 63.1651 11.4384 62.4159 11.4384H55.0464C54.2972 11.4384 53.69 12.0458 53.69 12.7948V14.9612L49.1592 10.4305C48.6294 9.90078 47.7706 9.90078 47.2409 10.4305L24.8235 32.8479C24.2938 33.3776 24.2938 34.2365 24.8235 34.766C25.3534 35.2957 26.212 35.2957 26.742 34.766ZM56.4026 14.1512H61.0593V22.3307L56.4026 17.674V14.1512Z" fill="#4770AC"/>
<path d="M26.742 34.766L30.9924 30.5155V38.2588C30.9924 39.0079 31.5996 39.6152 32.3488 39.6152C33.098 39.6152 33.7052 39.0079 33.7052 38.2588V27.8029L48.2002 13.3078L54.0859 19.1936C54.0869 19.1945 62.6953 27.8029 62.6953 27.8029V43.83C62.6953 44.5791 63.3024 45.1864 64.0517 45.1864C64.8009 45.1864 65.4081 44.5791 65.4081 43.83V30.5157L69.6582 34.7658C69.9232 35.0307 70.2704 35.1632 70.6174 35.1632C70.9644 35.1632 71.3116 35.0308 71.5766 34.7658C72.1063 34.2362 72.1063 33.3772 71.5766 32.8477L63.7723 25.0434V12.7948C63.7723 12.0458 63.1651 11.4384 62.4159 11.4384H55.0464C54.2972 11.4384 53.69 12.0458 53.69 12.7948V14.9612L49.1592 10.4305C48.6294 9.90078 47.7706 9.90078 47.2409 10.4305L24.8235 32.8479C24.2938 33.3776 24.2938 34.2365 24.8235 34.766C25.3534 35.2957 26.212 35.2957 26.742 34.766ZM56.4026 14.1512H61.0593V22.3307L56.4026 17.674V14.1512Z" fill="black" fill-opacity="0.5"/>
<path d="M53.377 43.5442C54.1262 43.5442 54.7334 42.9369 54.7334 42.1878V33.3266C54.7334 32.5776 54.1262 31.9702 53.377 31.9702H43.0239C42.2747 31.9702 41.6675 32.5776 41.6675 33.3266V40.5603C41.6675 41.3094 42.2747 41.9167 43.0239 41.9167C43.7731 41.9167 44.3803 41.3094 44.3803 40.5603V34.683H52.0206V42.1878C52.0206 42.937 52.6277 43.5442 53.377 43.5442Z" fill="#4770AC"/>
<path d="M53.377 43.5442C54.1262 43.5442 54.7334 42.9369 54.7334 42.1878V33.3266C54.7334 32.5776 54.1262 31.9702 53.377 31.9702H43.0239C42.2747 31.9702 41.6675 32.5776 41.6675 33.3266V40.5603C41.6675 41.3094 42.2747 41.9167 43.0239 41.9167C43.7731 41.9167 44.3803 41.3094 44.3803 40.5603V34.683H52.0206V42.1878C52.0206 42.937 52.6277 43.5442 53.377 43.5442Z" fill="black" fill-opacity="0.5"/>
<path d="M83.0221 52.494C81.359 49.8871 78.0326 48.9232 75.2557 50.1634C74.8292 48.4934 73.7162 47.0303 72.1331 46.1964C71.2417 45.7268 70.2419 45.4785 69.2422 45.4785C67.058 45.4785 65.0741 46.5912 63.9348 48.4553L56.6233 60.4372L56.5721 60.4657C55.4336 61.0949 54.1005 61.3216 52.8182 61.1047L34.925 58.0738C33.6893 57.8646 32.8103 56.7229 32.9233 55.4746C32.9843 54.7999 33.3128 54.1996 33.8483 53.7843C34.3836 53.369 35.0464 53.1999 35.7156 53.3088L51.2504 55.8334C54.0504 56.2885 56.7763 54.4885 57.4594 51.7368C57.8158 50.3004 57.5761 48.8209 56.7839 47.5709C55.9916 46.3207 54.7563 45.4721 53.3052 45.1814L28.5051 40.2095C27.5045 40.0089 26.4798 39.8978 25.4598 39.879C20.9375 39.7967 16.5936 42.1543 14.114 46.0332C11.7141 49.7871 8.43991 53.0059 4.64524 55.341C4.00743 55.7337 3.80821 56.5691 4.20087 57.2071C4.59368 57.8452 5.42883 58.0441 6.06696 57.6515C10.2077 55.1032 13.7807 51.5912 16.3997 47.4945C18.3418 44.4567 21.711 42.5898 25.2281 42.5898C25.2886 42.5898 25.3497 42.5903 25.41 42.5914C26.2681 42.6072 27.1302 42.7006 27.972 42.8693L52.7719 47.8412C53.4897 47.9851 54.1008 48.4049 54.4925 49.0231C54.8844 49.6412 55.0029 50.3729 54.8268 51.0835C54.4811 52.4757 53.1 53.3857 51.6858 53.1559L36.1511 50.6313C34.7506 50.4037 33.3062 50.7718 32.1859 51.6409C31.0658 52.5099 30.3497 53.8179 30.2217 55.2301C29.9817 57.8801 31.8489 60.3043 34.4723 60.7486L52.3654 63.7796C54.2502 64.0989 56.2111 63.7654 57.885 62.8399L76.0932 52.7731C77.7054 51.8818 79.7443 52.3999 80.7354 53.953C81.2396 54.7434 81.4048 55.6824 81.2004 56.5971C80.9962 57.5121 80.4473 58.2915 79.6548 58.7922L56.1233 73.6636C54.0341 74.9837 51.5383 75.5078 49.0943 75.1384L35.0329 73.0142C34.2909 72.903 33.6011 73.4123 33.4892 74.1528C33.3775 74.8934 33.887 75.5847 34.6278 75.6966L48.6891 77.8209C49.3347 77.9184 49.9833 77.9667 50.6297 77.9667C53.0743 77.9667 55.4846 77.2767 57.5728 75.957L81.1046 61.0857C82.5113 60.1966 83.4859 58.8126 83.8485 57.1883C84.2112 55.5641 83.9174 53.897 83.0221 52.494ZM66.2503 49.8692C66.8923 48.8185 68.0108 48.1914 69.2423 48.1914C69.8036 48.1914 70.3659 48.3314 70.869 48.5965C71.977 49.1801 72.6739 50.3112 72.7304 51.5324L61.4195 57.7857L66.2503 49.8692Z" fill="#4770AC"/>
<path d="M83.0221 52.494C81.359 49.8871 78.0326 48.9232 75.2557 50.1634C74.8292 48.4934 73.7162 47.0303 72.1331 46.1964C71.2417 45.7268 70.2419 45.4785 69.2422 45.4785C67.058 45.4785 65.0741 46.5912 63.9348 48.4553L56.6233 60.4372L56.5721 60.4657C55.4336 61.0949 54.1005 61.3216 52.8182 61.1047L34.925 58.0738C33.6893 57.8646 32.8103 56.7229 32.9233 55.4746C32.9843 54.7999 33.3128 54.1996 33.8483 53.7843C34.3836 53.369 35.0464 53.1999 35.7156 53.3088L51.2504 55.8334C54.0504 56.2885 56.7763 54.4885 57.4594 51.7368C57.8158 50.3004 57.5761 48.8209 56.7839 47.5709C55.9916 46.3207 54.7563 45.4721 53.3052 45.1814L28.5051 40.2095C27.5045 40.0089 26.4798 39.8978 25.4598 39.879C20.9375 39.7967 16.5936 42.1543 14.114 46.0332C11.7141 49.7871 8.43991 53.0059 4.64524 55.341C4.00743 55.7337 3.80821 56.5691 4.20087 57.2071C4.59368 57.8452 5.42883 58.0441 6.06696 57.6515C10.2077 55.1032 13.7807 51.5912 16.3997 47.4945C18.3418 44.4567 21.711 42.5898 25.2281 42.5898C25.2886 42.5898 25.3497 42.5903 25.41 42.5914C26.2681 42.6072 27.1302 42.7006 27.972 42.8693L52.7719 47.8412C53.4897 47.9851 54.1008 48.4049 54.4925 49.0231C54.8844 49.6412 55.0029 50.3729 54.8268 51.0835C54.4811 52.4757 53.1 53.3857 51.6858 53.1559L36.1511 50.6313C34.7506 50.4037 33.3062 50.7718 32.1859 51.6409C31.0658 52.5099 30.3497 53.8179 30.2217 55.2301C29.9817 57.8801 31.8489 60.3043 34.4723 60.7486L52.3654 63.7796C54.2502 64.0989 56.2111 63.7654 57.885 62.8399L76.0932 52.7731C77.7054 51.8818 79.7443 52.3999 80.7354 53.953C81.2396 54.7434 81.4048 55.6824 81.2004 56.5971C80.9962 57.5121 80.4473 58.2915 79.6548 58.7922L56.1233 73.6636C54.0341 74.9837 51.5383 75.5078 49.0943 75.1384L35.0329 73.0142C34.2909 72.903 33.6011 73.4123 33.4892 74.1528C33.3775 74.8934 33.887 75.5847 34.6278 75.6966L48.6891 77.8209C49.3347 77.9184 49.9833 77.9667 50.6297 77.9667C53.0743 77.9667 55.4846 77.2767 57.5728 75.957L81.1046 61.0857C82.5113 60.1966 83.4859 58.8126 83.8485 57.1883C84.2112 55.5641 83.9174 53.897 83.0221 52.494ZM66.2503 49.8692C66.8923 48.8185 68.0108 48.1914 69.2423 48.1914C69.8036 48.1914 70.3659 48.3314 70.869 48.5965C71.977 49.1801 72.6739 50.3112 72.7304 51.5324L61.4195 57.7857L66.2503 49.8692Z" fill="black" fill-opacity="0.5"/>
<path d="M30.4439 72.321L21.3016 70.9398C19.5379 70.6732 17.7458 71.0663 16.2557 72.0467L13.9096 73.5895C13.2837 74.001 13.1101 74.8421 13.5215 75.4679C13.7821 75.8641 14.2149 76.0791 14.656 76.0791C14.9118 76.0791 15.1705 76.007 15.4001 75.8559L17.7461 74.3131C18.6765 73.7012 19.7944 73.4557 20.8964 73.6223L30.0388 75.0034C30.7786 75.1146 31.4706 74.6056 31.5825 73.8649C31.6942 73.1242 31.1845 72.4331 30.4439 72.321Z" fill="#4770AC"/>
<path d="M30.4439 72.321L21.3016 70.9398C19.5379 70.6732 17.7458 71.0663 16.2557 72.0467L13.9096 73.5895C13.2837 74.001 13.1101 74.8421 13.5215 75.4679C13.7821 75.8641 14.2149 76.0791 14.656 76.0791C14.9118 76.0791 15.1705 76.007 15.4001 75.8559L17.7461 74.3131C18.6765 73.7012 19.7944 73.4557 20.8964 73.6223L30.0388 75.0034C30.7786 75.1146 31.4706 74.6056 31.5825 73.8649C31.6942 73.1242 31.1845 72.4331 30.4439 72.321Z" fill="black" fill-opacity="0.5"/>
</g>
<defs>
<clipPath id="clip0">
<rect width="80" height="80" fill="white" transform="translate(4 4)"/>
</clipPath>
</defs>
</svg>
