<svg width="21" height="27" viewBox="0 0 21 27" fill="none" xmlns="http://www.w3.org/2000/svg">
<path d="M20.3765 20.1491L15.8961 16.8724C15.7046 16.7329 15.4729 16.6594 15.236 16.663C14.9991 16.6665 14.7698 16.747 14.5826 16.8921L11.7608 19.0746C8.68103 16.6489 6.54131 13.2271 5.70868 9.39618L8.90618 7.8146C9.11897 7.71016 9.29193 7.53925 9.39889 7.32773C9.50586 7.1162 9.54099 6.87559 9.49898 6.64231L8.51438 1.1796C8.46731 0.927723 8.33383 0.700163 8.13696 0.536158C7.94008 0.372153 7.69215 0.281984 7.43592 0.281198L2.5739 0.282333C2.32666 0.282427 2.08676 0.366319 1.89334 0.520318C1.69992 0.674317 1.56441 0.889329 1.50893 1.13026C-1.11575 12.516 5.9894 23.854 17.3574 26.4746C17.5983 26.5303 17.8511 26.5027 18.0743 26.3962C18.2975 26.2898 18.478 26.1107 18.5864 25.8884L20.7159 21.5176C20.8273 21.2856 20.8544 21.022 20.7924 20.7723C20.7304 20.5225 20.5834 20.3021 20.3765 20.1491Z" fill="#7F0102"/>
</svg>
