<svg width="91" height="91" viewBox="0 0 91 91" fill="none" xmlns="http://www.w3.org/2000/svg">
<path d="M16.5254 20.5698H75.6558V34.2458H16.5254V20.5698Z" fill="#4770AC"/>
<path d="M16.5254 20.5698H75.6558V34.2458H16.5254V20.5698Z" fill="white" fill-opacity="0.25"/>
<path d="M27.8522 14.5222C26.9357 14.5222 26.0567 14.8863 25.4086 15.5344C24.7606 16.1824 24.3965 17.0614 24.3965 17.9779V23.1614C24.3965 24.0779 24.7606 24.9569 25.4086 25.6049C26.0567 26.253 26.9357 26.6171 27.8522 26.6171C28.7687 26.6171 29.6476 26.253 30.2957 25.6049C30.9438 24.9569 31.3078 24.0779 31.3078 23.1614V17.9779C31.3078 17.0614 30.9438 16.1824 30.2957 15.5344C29.6476 14.8863 28.7687 14.5222 27.8522 14.5222Z" fill="#4770AC"/>
<path d="M27.8522 14.5222C26.9357 14.5222 26.0567 14.8863 25.4086 15.5344C24.7606 16.1824 24.3965 17.0614 24.3965 17.9779V23.1614C24.3965 24.0779 24.7606 24.9569 25.4086 25.6049C26.0567 26.253 26.9357 26.6171 27.8522 26.6171C28.7687 26.6171 29.6476 26.253 30.2957 25.6049C30.9438 24.9569 31.3078 24.0779 31.3078 23.1614V17.9779C31.3078 17.0614 30.9438 16.1824 30.2957 15.5344C29.6476 14.8863 28.7687 14.5222 27.8522 14.5222Z" fill="white" fill-opacity="0.85"/>
<path d="M64.3287 14.5222C63.4122 14.5222 62.5333 14.8863 61.8852 15.5344C61.2371 16.1824 60.873 17.0614 60.873 17.9779V23.1614C60.873 24.0779 61.2371 24.9569 61.8852 25.6049C62.5333 26.253 63.4122 26.6171 64.3287 26.6171C65.2452 26.6171 66.1242 26.253 66.7723 25.6049C67.4203 24.9569 67.7844 24.0779 67.7844 23.1614V17.9779C67.7844 17.0614 67.4203 16.1824 66.7723 15.5344C66.1242 14.8863 65.2452 14.5222 64.3287 14.5222Z" fill="#4770AC"/>
<path d="M64.3287 14.5222C63.4122 14.5222 62.5333 14.8863 61.8852 15.5344C61.2371 16.1824 60.873 17.0614 60.873 17.9779V23.1614C60.873 24.0779 61.2371 24.9569 61.8852 25.6049C62.5333 26.253 63.4122 26.6171 64.3287 26.6171C65.2452 26.6171 66.1242 26.253 66.7723 25.6049C67.4203 24.9569 67.7844 24.0779 67.7844 23.1614V17.9779C67.7844 17.0614 67.4203 16.1824 66.7723 15.5344C66.1242 14.8863 65.2452 14.5222 64.3287 14.5222Z" fill="white" fill-opacity="0.85"/>
<path d="M16.5254 34.2458H75.6558V73.6528H16.5254V34.2458Z" fill="#4770AC"/>
<path d="M16.5254 34.2458H75.6558V73.6528H16.5254V34.2458Z" fill="white" fill-opacity="0.85"/>
<path d="M75.6559 19.2257H72.2003C71.8439 19.2257 71.502 19.3672 71.25 19.6193C70.998 19.8713 70.8564 20.2131 70.8564 20.5695C70.8564 20.9259 70.998 21.2678 71.25 21.5198C71.502 21.7718 71.8439 21.9134 72.2003 21.9134H74.3121V32.9017H17.8694V21.9134H23.0529V23.1613C23.0529 24.4342 23.5586 25.655 24.4587 26.5551C25.3587 27.4552 26.5795 27.9608 27.8524 27.9608C29.1254 27.9608 30.3462 27.4552 31.2462 26.5551C32.1463 25.655 32.652 24.4342 32.652 23.1613V17.9778C32.652 16.7049 32.1463 15.4841 31.2462 14.584C30.3462 13.6839 29.1254 13.1782 27.8524 13.1782C26.5795 13.1782 25.3587 13.6839 24.4587 14.584C23.5586 15.4841 23.0529 16.7049 23.0529 17.9778V19.2257H16.5255C16.1691 19.2257 15.8273 19.3672 15.5753 19.6193C15.3232 19.8713 15.1816 20.2131 15.1816 20.5695V34.2456C15.1816 34.602 15.3232 34.9438 15.5753 35.1958C15.8273 35.4478 16.1691 35.5894 16.5255 35.5894H74.3121V55.8466C74.3121 56.203 74.4537 56.5448 74.7057 56.7969C74.9577 57.0489 75.2995 57.1905 75.6559 57.1905C76.0124 57.1905 76.3542 57.0489 76.6062 56.7969C76.8582 56.5448 76.9998 56.203 76.9998 55.8466V20.5695C76.9998 20.2131 76.8582 19.8713 76.6062 19.6193C76.3542 19.3672 76.0124 19.2257 75.6559 19.2257ZM25.7406 17.9778C25.7406 17.4177 25.9631 16.8805 26.3592 16.4845C26.7552 16.0885 27.2924 15.866 27.8524 15.866C28.4125 15.866 28.9497 16.0885 29.3457 16.4845C29.7418 16.8805 29.9642 17.4177 29.9642 17.9778V23.1613C29.9642 23.7214 29.7418 24.2585 29.3457 24.6546C28.9497 25.0506 28.4125 25.2731 27.8524 25.2731C27.2924 25.2731 26.7552 25.0506 26.3592 24.6546C25.9631 24.2585 25.7406 23.7214 25.7406 23.1613V17.9778Z" fill="#4770AC"/>
<path d="M75.6559 19.2257H72.2003C71.8439 19.2257 71.502 19.3672 71.25 19.6193C70.998 19.8713 70.8564 20.2131 70.8564 20.5695C70.8564 20.9259 70.998 21.2678 71.25 21.5198C71.502 21.7718 71.8439 21.9134 72.2003 21.9134H74.3121V32.9017H17.8694V21.9134H23.0529V23.1613C23.0529 24.4342 23.5586 25.655 24.4587 26.5551C25.3587 27.4552 26.5795 27.9608 27.8524 27.9608C29.1254 27.9608 30.3462 27.4552 31.2462 26.5551C32.1463 25.655 32.652 24.4342 32.652 23.1613V17.9778C32.652 16.7049 32.1463 15.4841 31.2462 14.584C30.3462 13.6839 29.1254 13.1782 27.8524 13.1782C26.5795 13.1782 25.3587 13.6839 24.4587 14.584C23.5586 15.4841 23.0529 16.7049 23.0529 17.9778V19.2257H16.5255C16.1691 19.2257 15.8273 19.3672 15.5753 19.6193C15.3232 19.8713 15.1816 20.2131 15.1816 20.5695V34.2456C15.1816 34.602 15.3232 34.9438 15.5753 35.1958C15.8273 35.4478 16.1691 35.5894 16.5255 35.5894H74.3121V55.8466C74.3121 56.203 74.4537 56.5448 74.7057 56.7969C74.9577 57.0489 75.2995 57.1905 75.6559 57.1905C76.0124 57.1905 76.3542 57.0489 76.6062 56.7969C76.8582 56.5448 76.9998 56.203 76.9998 55.8466V20.5695C76.9998 20.2131 76.8582 19.8713 76.6062 19.6193C76.3542 19.3672 76.0124 19.2257 75.6559 19.2257ZM25.7406 17.9778C25.7406 17.4177 25.9631 16.8805 26.3592 16.4845C26.7552 16.0885 27.2924 15.866 27.8524 15.866C28.4125 15.866 28.9497 16.0885 29.3457 16.4845C29.7418 16.8805 29.9642 17.4177 29.9642 17.9778V23.1613C29.9642 23.7214 29.7418 24.2585 29.3457 24.6546C28.9497 25.0506 28.4125 25.2731 27.8524 25.2731C27.2924 25.2731 26.7552 25.0506 26.3592 24.6546C25.9631 24.2585 25.7406 23.7214 25.7406 23.1613V17.9778Z" fill="black" fill-opacity="0.5"/>
<path d="M42.6349 21.9132H59.5293V23.161C59.5293 24.434 60.035 25.6547 60.9351 26.5548C61.8351 27.4549 63.0559 27.9606 64.3288 27.9606C65.6018 27.9606 66.8225 27.4549 67.7226 26.5548C68.6227 25.6547 69.1284 24.434 69.1284 23.161V17.9775C69.1284 16.7046 68.6227 15.4838 67.7226 14.5837C66.8225 13.6836 65.6018 13.178 64.3288 13.178C63.0559 13.178 61.8351 13.6836 60.9351 14.5837C60.035 15.4838 59.5293 16.7046 59.5293 17.9775V19.2254H42.6349C42.2785 19.2254 41.9367 19.367 41.6846 19.619C41.4326 19.871 41.291 20.2129 41.291 20.5693C41.291 20.9257 41.4326 21.2675 41.6846 21.5195C41.9367 21.7716 42.2785 21.9132 42.6349 21.9132ZM62.217 17.9775C62.217 17.4174 62.4395 16.8803 62.8356 16.4843C63.2316 16.0882 63.7688 15.8657 64.3288 15.8657C64.8889 15.8657 65.4261 16.0882 65.8221 16.4843C66.2182 16.8803 66.4406 17.4174 66.4406 17.9775V23.161C66.4406 23.7211 66.2182 24.2583 65.8221 24.6543C65.4261 25.0503 64.8889 25.2728 64.3288 25.2728C63.7688 25.2728 63.2316 25.0503 62.8356 24.6543C62.4395 24.2583 62.217 23.7211 62.217 23.161V17.9775Z" fill="#4770AC"/>
<path d="M42.6349 21.9132H59.5293V23.161C59.5293 24.434 60.035 25.6547 60.9351 26.5548C61.8351 27.4549 63.0559 27.9606 64.3288 27.9606C65.6018 27.9606 66.8225 27.4549 67.7226 26.5548C68.6227 25.6547 69.1284 24.434 69.1284 23.161V17.9775C69.1284 16.7046 68.6227 15.4838 67.7226 14.5837C66.8225 13.6836 65.6018 13.178 64.3288 13.178C63.0559 13.178 61.8351 13.6836 60.9351 14.5837C60.035 15.4838 59.5293 16.7046 59.5293 17.9775V19.2254H42.6349C42.2785 19.2254 41.9367 19.367 41.6846 19.619C41.4326 19.871 41.291 20.2129 41.291 20.5693C41.291 20.9257 41.4326 21.2675 41.6846 21.5195C41.9367 21.7716 42.2785 21.9132 42.6349 21.9132ZM62.217 17.9775C62.217 17.4174 62.4395 16.8803 62.8356 16.4843C63.2316 16.0882 63.7688 15.8657 64.3288 15.8657C64.8889 15.8657 65.4261 16.0882 65.8221 16.4843C66.2182 16.8803 66.4406 17.4174 66.4406 17.9775V23.161C66.4406 23.7211 66.2182 24.2583 65.8221 24.6543C65.4261 25.0503 64.8889 25.2728 64.3288 25.2728C63.7688 25.2728 63.2316 25.0503 62.8356 24.6543C62.4395 24.2583 62.217 23.7211 62.217 23.161V17.9775Z" fill="black" fill-opacity="0.5"/>
<path d="M35.8195 21.9131H36.7794C37.1358 21.9131 37.4776 21.7715 37.7296 21.5195C37.9817 21.2675 38.1232 20.9256 38.1232 20.5692C38.1232 20.2128 37.9817 19.871 37.7296 19.619C37.4776 19.3669 37.1358 19.2253 36.7794 19.2253H35.8195C35.463 19.2253 35.1212 19.3669 34.8692 19.619C34.6172 19.871 34.4756 20.2128 34.4756 20.5692C34.4756 20.9256 34.6172 21.2675 34.8692 21.5195C35.1212 21.7715 35.463 21.9131 35.8195 21.9131Z" fill="#4770AC"/>
<path d="M35.8195 21.9131H36.7794C37.1358 21.9131 37.4776 21.7715 37.7296 21.5195C37.9817 21.2675 38.1232 20.9256 38.1232 20.5692C38.1232 20.2128 37.9817 19.871 37.7296 19.619C37.4776 19.3669 37.1358 19.2253 36.7794 19.2253H35.8195C35.463 19.2253 35.1212 19.3669 34.8692 19.619C34.6172 19.871 34.4756 20.2128 34.4756 20.5692C34.4756 20.9256 34.6172 21.2675 34.8692 21.5195C35.1212 21.7715 35.463 21.9131 35.8195 21.9131Z" fill="black" fill-opacity="0.5"/>
<path d="M75.6559 65.1092C75.2995 65.1092 74.9577 65.2508 74.7057 65.5028C74.4537 65.7548 74.3121 66.0967 74.3121 66.4531V72.3085H17.8694V38.9674C17.8694 38.611 17.7278 38.2692 17.4758 38.0171C17.2238 37.7651 16.8819 37.6235 16.5255 37.6235C16.1691 37.6235 15.8273 37.7651 15.5753 38.0171C15.3232 38.2692 15.1816 38.611 15.1816 38.9674V73.6524C15.1816 74.0088 15.3232 74.3506 15.5753 74.6027C15.8273 74.8547 16.1691 74.9963 16.5255 74.9963H75.6559C76.0124 74.9963 76.3542 74.8547 76.6062 74.6027C76.8582 74.3506 76.9998 74.0088 76.9998 73.6524V66.4531C76.9998 66.0967 76.8582 65.7548 76.6062 65.5028C76.3542 65.2508 76.0124 65.1092 75.6559 65.1092Z" fill="#4770AC"/>
<path d="M75.6559 65.1092C75.2995 65.1092 74.9577 65.2508 74.7057 65.5028C74.4537 65.7548 74.3121 66.0967 74.3121 66.4531V72.3085H17.8694V38.9674C17.8694 38.611 17.7278 38.2692 17.4758 38.0171C17.2238 37.7651 16.8819 37.6235 16.5255 37.6235C16.1691 37.6235 15.8273 37.7651 15.5753 38.0171C15.3232 38.2692 15.1816 38.611 15.1816 38.9674V73.6524C15.1816 74.0088 15.3232 74.3506 15.5753 74.6027C15.8273 74.8547 16.1691 74.9963 16.5255 74.9963H75.6559C76.0124 74.9963 76.3542 74.8547 76.6062 74.6027C76.8582 74.3506 76.9998 74.0088 76.9998 73.6524V66.4531C76.9998 66.0967 76.8582 65.7548 76.6062 65.5028C76.3542 65.2508 76.0124 65.1092 75.6559 65.1092Z" fill="black" fill-opacity="0.5"/>
<path d="M75.6559 59.4941C75.2995 59.4941 74.9577 59.6357 74.7056 59.8877C74.4536 60.1398 74.312 60.4816 74.312 60.838V61.3656C74.312 61.722 74.4536 62.0638 74.7056 62.3158C74.9577 62.5679 75.2995 62.7095 75.6559 62.7095C76.0123 62.7095 76.3541 62.5679 76.6061 62.3158C76.8582 62.0638 76.9998 61.722 76.9998 61.3656V60.838C76.9998 60.4816 76.8582 60.1398 76.6061 59.8877C76.3541 59.6357 76.0123 59.4941 75.6559 59.4941Z" fill="#4770AC"/>
<path d="M75.6559 59.4941C75.2995 59.4941 74.9577 59.6357 74.7056 59.8877C74.4536 60.1398 74.312 60.4816 74.312 60.838V61.3656C74.312 61.722 74.4536 62.0638 74.7056 62.3158C74.9577 62.5679 75.2995 62.7095 75.6559 62.7095C76.0123 62.7095 76.3541 62.5679 76.6061 62.3158C76.8582 62.0638 76.9998 61.722 76.9998 61.3656V60.838C76.9998 60.4816 76.8582 60.1398 76.6061 59.8877C76.3541 59.6357 76.0123 59.4941 75.6559 59.4941Z" fill="black" fill-opacity="0.5"/>
<circle cx="46.0908" cy="53.6543" r="11.2955" fill="#4770AC"/>
<circle cx="46.0908" cy="53.6543" r="11.2955" fill="white" fill-opacity="0.85"/>
<circle cx="46.0908" cy="53.6543" r="11.2955" stroke="#7F0102" stroke-width="3.2273"/>
<circle cx="46.0908" cy="53.6543" r="11.2955" stroke="white" stroke-opacity="0.5" stroke-width="3.2273"/>
<path d="M38.0225 62.5292C44.1666 55.9125 47.6114 52.2027 53.7555 45.5859" stroke="#7F0102" stroke-width="3.2273"/>
<path d="M38.0225 62.5292C44.1666 55.9125 47.6114 52.2027 53.7555 45.5859" stroke="white" stroke-opacity="0.5" stroke-width="3.2273"/>
</svg>
