<svg width="91" height="91" viewBox="0 0 91 91" fill="none" xmlns="http://www.w3.org/2000/svg">
<path d="M16.5 44.5H31.5L46 29H56L72.5 12L71 15.5V23.5" stroke="#4770AC" stroke-width="5"/>
<path d="M16.5 44.5H31.5L46 29H56L72.5 12L71 15.5V23.5" stroke="white" stroke-opacity="0.85" stroke-width="5"/>
<path d="M61 13.5H70.5" stroke="#4770AC" stroke-width="5"/>
<path d="M61 13.5H70.5" stroke="white" stroke-opacity="0.85" stroke-width="5"/>
<rect x="63" y="38" width="11" height="36" fill="#4770AC"/>
<rect x="63" y="38" width="11" height="36" fill="white" fill-opacity="0.25"/>
<rect x="47" y="43" width="11" height="31" fill="#4770AC"/>
<rect x="47" y="43" width="11" height="31" fill="white" fill-opacity="0.85"/>
<rect x="32" y="52" width="11" height="22" fill="#7F0102"/>
<rect x="32" y="52" width="11" height="22" fill="white" fill-opacity="0.5"/>
<rect x="16" y="58" width="11" height="16" fill="#4770AC"/>
<rect x="16" y="58" width="11" height="16" fill="white" fill-opacity="0.85"/>
<path d="M78.9746 73.5292H74.7514V57.5317C74.7514 56.9654 74.2923 56.5063 73.726 56.5063C73.1597 56.5063 72.7006 56.9654 72.7006 57.5317V73.5292H63.7031V38.2913H72.7006V52.7465C72.7006 53.3128 73.1597 53.7719 73.726 53.7719C74.2923 53.7719 74.7514 53.3128 74.7514 52.7465V37.2659C74.7514 36.6996 74.2923 36.2405 73.726 36.2405H62.6777C62.1114 36.2405 61.6523 36.6996 61.6523 37.2659V73.5292H59.2838V42.7903C59.2838 42.224 58.8247 41.7649 58.2584 41.7649H47.2098C46.6435 41.7649 46.1844 42.224 46.1844 42.7903V73.5292H43.8157V51.0768C43.8157 50.5105 43.3566 50.0514 42.7904 50.0514H31.7417C31.1754 50.0514 30.7163 50.5105 30.7163 51.0768V73.5292H28.3477V57.706C28.3477 57.1397 27.8886 56.6806 27.3223 56.6806H16.2735C15.7072 56.6806 15.2481 57.1397 15.2481 57.706V73.5292H11.0254C10.4591 73.5292 10 73.9883 10 74.5545V78.9747C10 79.5409 10.4591 80 11.0254 80H22.0996C22.6659 80 23.125 79.5409 23.125 78.9747C23.125 78.4084 22.6659 77.9493 22.0996 77.9493H12.0508V75.5799H77.9492V77.9493H26.8848C26.3185 77.9493 25.8594 78.4084 25.8594 78.9747C25.8594 79.5409 26.3185 80 26.8848 80H78.9746C79.5409 80 80 79.5409 80 78.9747V74.5545C80 73.9883 79.5409 73.5292 78.9746 73.5292ZM48.2352 43.8157H57.233V73.5292H48.2352V43.8157ZM32.767 52.1022H41.7648V73.5292H32.767V52.1022ZM17.2989 58.7314H26.2967V73.5292H17.2989V58.7314Z" fill="#4770AC"/>
<path d="M78.9746 73.5292H74.7514V57.5317C74.7514 56.9654 74.2923 56.5063 73.726 56.5063C73.1597 56.5063 72.7006 56.9654 72.7006 57.5317V73.5292H63.7031V38.2913H72.7006V52.7465C72.7006 53.3128 73.1597 53.7719 73.726 53.7719C74.2923 53.7719 74.7514 53.3128 74.7514 52.7465V37.2659C74.7514 36.6996 74.2923 36.2405 73.726 36.2405H62.6777C62.1114 36.2405 61.6523 36.6996 61.6523 37.2659V73.5292H59.2838V42.7903C59.2838 42.224 58.8247 41.7649 58.2584 41.7649H47.2098C46.6435 41.7649 46.1844 42.224 46.1844 42.7903V73.5292H43.8157V51.0768C43.8157 50.5105 43.3566 50.0514 42.7904 50.0514H31.7417C31.1754 50.0514 30.7163 50.5105 30.7163 51.0768V73.5292H28.3477V57.706C28.3477 57.1397 27.8886 56.6806 27.3223 56.6806H16.2735C15.7072 56.6806 15.2481 57.1397 15.2481 57.706V73.5292H11.0254C10.4591 73.5292 10 73.9883 10 74.5545V78.9747C10 79.5409 10.4591 80 11.0254 80H22.0996C22.6659 80 23.125 79.5409 23.125 78.9747C23.125 78.4084 22.6659 77.9493 22.0996 77.9493H12.0508V75.5799H77.9492V77.9493H26.8848C26.3185 77.9493 25.8594 78.4084 25.8594 78.9747C25.8594 79.5409 26.3185 80 26.8848 80H78.9746C79.5409 80 80 79.5409 80 78.9747V74.5545C80 73.9883 79.5409 73.5292 78.9746 73.5292ZM48.2352 43.8157H57.233V73.5292H48.2352V43.8157ZM32.767 52.1022H41.7648V73.5292H32.767V52.1022ZM17.2989 58.7314H26.2967V73.5292H17.2989V58.7314Z" fill="black" fill-opacity="0.5"/>
<path d="M16.1357 47.4062H31.7408C32.6462 47.4062 33.5157 47.0238 34.1264 46.3573L46.8372 32.4902H55.4957C56.3602 32.4902 57.1727 32.1539 57.7834 31.5432L68.2816 21.045V24.2842C68.2816 24.8505 68.7407 25.3096 69.307 25.3096H73.7258C74.2921 25.3096 74.7512 24.8505 74.7512 24.2842V13.2348C74.7512 11.4511 73.3 10 71.5164 10H60.4682C59.9019 10 59.4428 10.4591 59.4428 11.0254V15.4455C59.4428 16.0118 59.9019 16.4709 60.4682 16.4709H63.7062L54.1564 26.0207H45.4141C44.5097 26.0207 43.6405 26.4031 43.03 27.0695L30.3177 40.9367H27.4902C26.9239 40.9367 26.4648 41.3958 26.4648 41.9621C26.4648 42.5284 26.9239 42.9875 27.4902 42.9875H30.7687C31.0561 42.9875 31.3304 42.8669 31.5245 42.655L44.5417 28.4553C44.7651 28.2115 45.0829 28.0716 45.4139 28.0716H54.5809C54.8528 28.0716 55.1137 27.9636 55.3059 27.7712L66.9065 16.1707C67.1998 15.8774 67.2876 15.4363 67.1288 15.0533C66.9701 14.67 66.5962 14.4203 66.1815 14.4203H61.4934V12.0508H71.5163C72.1691 12.0508 72.7002 12.5819 72.7002 13.2348V23.259H70.3323V18.5695C70.3323 18.1549 70.0825 17.7809 69.6993 17.6222C69.3163 17.4637 68.875 17.5512 68.5819 17.8445L56.3334 30.093C56.11 30.3164 55.8123 30.4395 55.4957 30.4395H46.3861C46.0986 30.4395 45.8245 30.56 45.6302 30.772L32.6145 44.9717C32.3911 45.2156 32.0726 45.3555 31.7408 45.3555H17.1611V42.9875H22.7051C23.2714 42.9875 23.7305 42.5284 23.7305 41.9621C23.7305 41.3958 23.2714 40.9367 22.7051 40.9367H16.1357C15.5695 40.9367 15.1104 41.3958 15.1104 41.9621V46.3809C15.1104 46.9472 15.5695 47.4062 16.1357 47.4062Z" fill="#4770AC"/>
<path d="M16.1357 47.4062H31.7408C32.6462 47.4062 33.5157 47.0238 34.1264 46.3573L46.8372 32.4902H55.4957C56.3602 32.4902 57.1727 32.1539 57.7834 31.5432L68.2816 21.045V24.2842C68.2816 24.8505 68.7407 25.3096 69.307 25.3096H73.7258C74.2921 25.3096 74.7512 24.8505 74.7512 24.2842V13.2348C74.7512 11.4511 73.3 10 71.5164 10H60.4682C59.9019 10 59.4428 10.4591 59.4428 11.0254V15.4455C59.4428 16.0118 59.9019 16.4709 60.4682 16.4709H63.7062L54.1564 26.0207H45.4141C44.5097 26.0207 43.6405 26.4031 43.03 27.0695L30.3177 40.9367H27.4902C26.9239 40.9367 26.4648 41.3958 26.4648 41.9621C26.4648 42.5284 26.9239 42.9875 27.4902 42.9875H30.7687C31.0561 42.9875 31.3304 42.8669 31.5245 42.655L44.5417 28.4553C44.7651 28.2115 45.0829 28.0716 45.4139 28.0716H54.5809C54.8528 28.0716 55.1137 27.9636 55.3059 27.7712L66.9065 16.1707C67.1998 15.8774 67.2876 15.4363 67.1288 15.0533C66.9701 14.67 66.5962 14.4203 66.1815 14.4203H61.4934V12.0508H71.5163C72.1691 12.0508 72.7002 12.5819 72.7002 13.2348V23.259H70.3323V18.5695C70.3323 18.1549 70.0825 17.7809 69.6993 17.6222C69.3163 17.4637 68.875 17.5512 68.5819 17.8445L56.3334 30.093C56.11 30.3164 55.8123 30.4395 55.4957 30.4395H46.3861C46.0986 30.4395 45.8245 30.56 45.6302 30.772L32.6145 44.9717C32.3911 45.2156 32.0726 45.3555 31.7408 45.3555H17.1611V42.9875H22.7051C23.2714 42.9875 23.7305 42.5284 23.7305 41.9621C23.7305 41.3958 23.2714 40.9367 22.7051 40.9367H16.1357C15.5695 40.9367 15.1104 41.3958 15.1104 41.9621V46.3809C15.1104 46.9472 15.5695 47.4062 16.1357 47.4062Z" fill="black" fill-opacity="0.5"/>
</svg>
