<svg width="91" height="91" viewBox="0 0 91 91" fill="none" xmlns="http://www.w3.org/2000/svg">
<path d="M75.1435 48.5002L72.3991 47.6212C71.7424 47.4109 71.2323 46.8923 71.0254 46.2346C67.8674 36.1922 56.1405 31.5803 44.3365 31.5803C30.5267 31.5803 19.3315 37.891 19.3315 51.8271C19.3315 59.859 23.2709 65.4847 29.3573 68.7338C29.507 68.8137 29.6137 68.9557 29.6457 69.1223L31.0093 76.2049C31.1356 76.8722 31.7187 77.3552 32.3977 77.3552H37.0023C37.6813 77.3552 38.2644 76.8722 38.3907 76.2049L39.1361 72.2673C39.191 71.9767 39.4618 71.781 39.7554 71.8151C41.2405 71.9876 42.7716 72.0741 44.3364 72.0741C46.4279 72.0741 48.5168 71.9197 50.5564 71.6114C50.8561 71.5661 51.1386 71.7632 51.195 72.061L51.9794 76.2051C52.1057 76.8723 52.6888 77.3553 53.3678 77.3553H57.9724C58.6514 77.3553 59.2345 76.8723 59.3608 76.2051L60.7771 68.7062C60.809 68.5368 60.9179 68.3926 61.0708 68.3131C64.6853 66.4338 67.6756 63.8484 69.5827 60.5523C69.8368 60.113 70.2387 59.7784 70.7221 59.6236L75.1436 58.2073C76.2645 57.8482 77.0251 56.8061 77.0251 55.6291V51.0784C77.025 49.9013 76.2644 48.8591 75.1435 48.5002Z" fill="#4770AC"/>
<path d="M75.1435 48.5002L72.3991 47.6212C71.7424 47.4109 71.2323 46.8923 71.0254 46.2346C67.8674 36.1922 56.1405 31.5803 44.3365 31.5803C30.5267 31.5803 19.3315 37.891 19.3315 51.8271C19.3315 59.859 23.2709 65.4847 29.3573 68.7338C29.507 68.8137 29.6137 68.9557 29.6457 69.1223L31.0093 76.2049C31.1356 76.8722 31.7187 77.3552 32.3977 77.3552H37.0023C37.6813 77.3552 38.2644 76.8722 38.3907 76.2049L39.1361 72.2673C39.191 71.9767 39.4618 71.781 39.7554 71.8151C41.2405 71.9876 42.7716 72.0741 44.3364 72.0741C46.4279 72.0741 48.5168 71.9197 50.5564 71.6114C50.8561 71.5661 51.1386 71.7632 51.195 72.061L51.9794 76.2051C52.1057 76.8723 52.6888 77.3553 53.3678 77.3553H57.9724C58.6514 77.3553 59.2345 76.8723 59.3608 76.2051L60.7771 68.7062C60.809 68.5368 60.9179 68.3926 61.0708 68.3131C64.6853 66.4338 67.6756 63.8484 69.5827 60.5523C69.8368 60.113 70.2387 59.7784 70.7221 59.6236L75.1436 58.2073C76.2645 57.8482 77.0251 56.8061 77.0251 55.6291V51.0784C77.025 49.9013 76.2644 48.8591 75.1435 48.5002Z" fill="white" fill-opacity="0.85"/>
<path d="M55.0626 34.0383C55.2027 33.3735 55.6625 32.8207 56.2801 32.5381C58.6534 31.4518 64.7002 28.8376 66.2545 29.652C68.2012 30.6716 67.1815 41.6793 64.2152 43.3594C61.35 44.982 53.0365 43.6537 55.0626 34.0383Z" fill="#4770AC"/>
<path d="M55.0626 34.0383C55.2027 33.3735 55.6625 32.8207 56.2801 32.5381C58.6534 31.4518 64.7002 28.8376 66.2545 29.652C68.2012 30.6716 67.1815 41.6793 64.2152 43.3594C61.35 44.982 53.0365 43.6537 55.0626 34.0383Z" fill="white" fill-opacity="0.85"/>
<path d="M41.1865 38.3115C47.9981 38.3115 53.52 32.7896 53.52 25.978C53.52 19.1664 47.9981 13.6445 41.1865 13.6445C34.3749 13.6445 28.853 19.1664 28.853 25.978C28.853 32.7896 34.3749 38.3115 41.1865 38.3115Z" fill="#7F0102"/>
<path d="M41.1865 38.3115C47.9981 38.3115 53.52 32.7896 53.52 25.978C53.52 19.1664 47.9981 13.6445 41.1865 13.6445C34.3749 13.6445 28.853 19.1664 28.853 25.978C28.853 32.7896 34.3749 38.3115 41.1865 38.3115Z" fill="white" fill-opacity="0.5"/>
<path d="M40.903 32.0972C38.7715 32.0628 37.3276 30.9111 37.3276 30.0689C37.3276 29.6563 37.6885 29.0891 38.1183 29.0891C38.6856 29.0891 39.1496 30.2923 40.903 30.4298V26.3903C39.356 25.8403 37.637 25.2215 37.637 23.0212C37.637 20.8554 39.27 19.9959 40.903 19.8239V19.3255C40.903 19.1193 41.1092 18.9302 41.4016 18.9302C41.6593 18.9302 41.9173 19.1193 41.9173 19.3255V19.7897C43.0861 19.8241 44.7364 20.185 44.7364 21.0273C44.7364 21.354 44.4957 22.0071 43.98 22.0071C43.5675 22.0071 43.1205 21.4571 41.9173 21.3711V24.8605C43.4127 25.4105 45.0457 26.1668 45.0457 28.5046C45.0457 30.6189 43.7738 31.7878 41.9173 32.0457V32.6301C41.9173 32.8363 41.6595 33.0254 41.4016 33.0254C41.1093 33.0254 40.903 32.8363 40.903 32.6301V32.0972ZM41.0062 24.5338V21.4055C40.0436 21.5258 39.3561 21.9555 39.3561 22.8494C39.356 23.8292 40.0951 24.1901 41.0062 24.5338ZM41.814 26.7685V30.3954C42.7422 30.2235 43.3266 29.6735 43.3266 28.6936C43.3268 27.6107 42.6564 27.1294 41.814 26.7685Z" fill="white"/>
<path d="M67.2635 48.3871C67.2635 47.8485 66.8269 47.4121 66.2884 47.4121C65.7499 47.4121 65.3134 47.8487 65.3134 48.3871C65.3134 49.0698 64.758 49.6252 64.0753 49.6252C63.3928 49.6252 62.8373 49.0698 62.8373 48.3871C62.8373 47.8485 62.4007 47.4121 61.8622 47.4121C61.3238 47.4121 60.8872 47.8487 60.8872 48.3871C60.8872 50.1451 62.3175 51.5753 64.0753 51.5753C65.8332 51.5753 67.2635 50.145 67.2635 48.3871Z" fill="#4770AC"/>
<path d="M67.2635 48.3871C67.2635 47.8485 66.8269 47.4121 66.2884 47.4121C65.7499 47.4121 65.3134 47.8487 65.3134 48.3871C65.3134 49.0698 64.758 49.6252 64.0753 49.6252C63.3928 49.6252 62.8373 49.0698 62.8373 48.3871C62.8373 47.8485 62.4007 47.4121 61.8622 47.4121C61.3238 47.4121 60.8872 47.8487 60.8872 48.3871C60.8872 50.1451 62.3175 51.5753 64.0753 51.5753C65.8332 51.5753 67.2635 50.145 67.2635 48.3871Z" fill="black" fill-opacity="0.5"/>
<path d="M75.4409 47.5716L72.6965 46.6925C72.345 46.5798 72.068 46.2992 71.9556 45.9419C71.3772 44.1029 70.5044 42.3765 69.3613 40.8103C68.8404 40.0965 68.2611 39.4149 67.6282 38.7659C67.6282 38.7661 67.6282 38.7661 67.6282 38.7661C68.0331 36.9899 68.2532 34.9798 68.2245 33.243C68.1837 30.7586 67.6872 29.3015 66.7068 28.788C66.1788 28.5111 64.5719 27.67 55.874 31.6515C55.6681 31.7457 55.4757 31.8618 55.2976 31.9947C54.7112 31.8372 54.1119 31.6914 53.5089 31.5606C53.4363 31.5447 53.3614 31.5307 53.2883 31.5153C53.9931 29.9756 54.4046 28.3033 54.482 26.577C54.506 26.0389 54.0895 25.5833 53.5514 25.5593C53.0148 25.5326 52.5577 25.9517 52.5337 26.4898C52.4067 29.3282 51.2292 31.9989 49.2184 34.0098C48.017 35.2113 46.6102 36.084 45.111 36.6336C42.5109 36.2687 39.8626 36.2687 37.2626 36.6336C35.7632 36.084 34.3566 35.2113 33.1551 34.0098C31.0098 31.8645 29.8283 29.0122 29.8283 25.9782C29.8283 22.9441 31.0098 20.0919 33.1551 17.9466C35.3005 15.8012 38.1529 14.6196 41.1868 14.6196C44.2206 14.6196 47.0731 15.8012 49.2184 17.9466C50.0805 18.8087 50.7929 19.7925 51.3358 20.8704C51.5781 21.3514 52.1644 21.5451 52.6453 21.3027C53.1264 21.0607 53.3199 20.4743 53.0777 19.9934C52.4413 18.7294 51.6068 17.5769 50.5975 16.5675C48.0838 14.0538 44.7417 12.6694 41.1869 12.6694C37.6321 12.6694 34.29 14.0538 31.7763 16.5675C29.2626 19.0813 27.8782 22.4233 27.8782 25.9781C27.8782 29.5329 29.2626 32.875 31.7763 35.3887C32.5014 36.1138 33.2902 36.7374 34.1246 37.2597C34.1248 37.2597 34.1251 37.2596 34.1253 37.2596C33.5191 37.4172 32.9174 37.5941 32.3224 37.793C31.8116 37.9638 31.536 38.5161 31.7068 39.027C31.8774 39.5377 32.4301 39.8133 32.9407 39.6427C38.2583 37.865 44.1155 37.865 49.4331 39.6427C49.5357 39.677 49.6399 39.6932 49.7424 39.6932C50.1502 39.6932 50.5305 39.4351 50.667 39.027C50.8378 38.5163 50.5622 37.9638 50.0514 37.793C49.4564 37.5941 48.8547 37.417 48.2485 37.2596C48.2487 37.2596 48.249 37.2597 48.2493 37.2597C49.0837 36.7374 49.8724 36.1138 50.5975 35.3887C51.239 34.7472 51.8052 34.0468 52.2969 33.3023C52.5656 33.3545 52.8325 33.4092 53.0954 33.4663C53.4455 33.5423 53.7942 33.6239 54.1396 33.7097C54.1288 33.7521 54.1176 33.7943 54.1086 33.8374C53.6331 36.094 53.6639 38.0899 54.2003 39.7692C54.6824 41.2787 55.5525 42.5016 56.7861 43.4041C58.2401 44.4677 59.9954 44.9272 61.5855 44.9272C62.7822 44.9272 63.8855 44.6668 64.6958 44.2079C65.6123 43.6887 66.3802 42.5949 66.9881 40.9526C67.269 41.2805 67.5353 41.6164 67.7863 41.9603C68.804 43.3545 69.5809 44.8911 70.0954 46.5271C70.3976 47.488 71.1477 48.2441 72.1018 48.5499L74.8462 49.429C75.5663 49.6597 76.0501 50.3225 76.0501 51.0786V55.6293C76.0501 56.3854 75.5663 57.0482 74.8462 57.2789L70.4245 58.6952C69.7171 58.9219 69.1184 59.4081 68.7388 60.0642C67.0017 63.0664 64.2705 65.5508 60.6207 67.4483C60.1991 67.6678 59.907 68.0602 59.8191 68.5253L58.4029 76.024C58.3638 76.2306 58.1828 76.3804 57.9725 76.3804H53.3679C53.1577 76.3804 52.9767 76.2304 52.9375 76.024L52.1532 71.8798C51.9988 71.0644 51.234 70.5228 50.4109 70.6475C48.4275 70.9474 46.3837 71.0993 44.3367 71.0993C42.8137 71.0993 41.3103 71.0144 39.8678 70.8468C39.0703 70.755 38.3272 71.2988 38.1782 72.0863L37.4328 76.024C37.3937 76.2306 37.2127 76.3804 37.0024 76.3804H32.3979C32.1876 76.3804 32.0066 76.2304 31.9669 76.0208L30.6034 68.9384C30.5156 68.4821 30.229 68.0941 29.8167 67.8739C23.5952 64.5524 20.3067 59.0036 20.3067 51.8273C20.3067 48.2014 21.1 44.9952 22.6644 42.2974C24.1243 39.7798 26.2565 37.6982 29.0018 36.1103C29.4679 35.8406 29.6272 35.2441 29.3576 34.7779C29.088 34.3117 28.4916 34.1527 28.0253 34.4221C22.7021 37.5013 19.4915 42.2522 18.6075 48.286V48.2858C18.5137 48.2773 18.4197 48.2692 18.3262 48.2595C18.3432 47.6085 18.2254 46.9516 17.9689 46.314C17.4032 44.9078 16.2412 43.8929 15.0084 43.7284C14.0369 43.5983 13.1123 44.0108 12.4707 44.8585C11.5404 46.0878 11.6921 47.0606 11.983 47.6602C12.4741 48.6721 13.7365 49.3879 15.8315 49.8379C15.7739 49.9242 15.7105 50.0108 15.6412 50.0978C14.4034 51.6502 12.9451 51.9935 11.9982 52.0258C11.4439 52.0446 11 52.4897 11 53.0444V53.0491C11 53.5962 11.4317 54.0425 11.9783 54.0675C12.0483 54.0707 12.1215 54.0724 12.1976 54.0724C13.3958 54.0724 15.3188 53.6305 17.1662 51.3139C17.4579 50.9483 17.6956 50.5625 17.8782 50.1639C18.0622 50.1847 18.239 50.2025 18.4083 50.2182C18.4083 50.2178 18.4083 50.2176 18.4085 50.2172C18.3752 50.7456 18.3568 51.2817 18.3568 51.8273C18.3568 55.8876 19.3247 59.5078 21.2336 62.5878C22.9937 65.4275 25.5136 67.7526 28.7259 69.5011L30.0516 76.3864C30.2647 77.5129 31.2515 78.3305 32.398 78.3305H37.0025C38.149 78.3305 39.1358 77.5129 39.349 76.3864L40.0229 72.826C41.4226 72.9743 42.8717 73.0494 44.3367 73.0494C46.3467 73.0494 48.3543 72.9094 50.3109 72.633L51.0214 76.3867C51.2347 77.5131 52.2215 78.3306 53.3678 78.3306H57.9724C59.1188 78.3306 60.1056 77.513 60.3189 76.3862L61.6978 69.0854C65.5932 67.0255 68.5294 64.3196 70.4266 61.0408C70.5634 60.8045 70.7739 60.6311 71.0194 60.5525L75.4409 59.1362C76.9716 58.6456 78 57.2363 78 55.629V51.0784C78 49.4711 76.9716 48.0619 75.4409 47.5716ZM66.1282 35.9831C65.7529 39.1925 64.7462 41.938 63.7346 42.5109C62.5849 43.1622 59.9304 43.2879 57.9374 41.83C55.9421 40.3704 55.278 37.7456 56.0167 34.2394C56.0167 34.2392 56.0167 34.2392 56.0167 34.2392C56.0909 33.8871 56.3411 33.5825 56.6859 33.4246C61.5675 31.1901 64.3819 30.4592 65.4274 30.4592C65.5852 30.4592 65.7028 30.4759 65.781 30.5065C66.0951 30.8411 66.507 32.744 66.1282 35.9831ZM13.7377 46.8088C13.6368 46.6007 13.875 46.235 14.026 46.0353C14.2653 45.7191 14.4858 45.6545 14.6524 45.6545C14.6876 45.6545 14.7205 45.6574 14.7506 45.6614C15.1989 45.7212 15.827 46.2146 16.1598 47.0417C16.2382 47.2365 16.34 47.559 16.3638 47.9613C15.014 47.6815 13.9653 47.2783 13.7377 46.8088Z" fill="#4770AC"/>
<path d="M75.4409 47.5716L72.6965 46.6925C72.345 46.5798 72.068 46.2992 71.9556 45.9419C71.3772 44.1029 70.5044 42.3765 69.3613 40.8103C68.8404 40.0965 68.2611 39.4149 67.6282 38.7659C67.6282 38.7661 67.6282 38.7661 67.6282 38.7661C68.0331 36.9899 68.2532 34.9798 68.2245 33.243C68.1837 30.7586 67.6872 29.3015 66.7068 28.788C66.1788 28.5111 64.5719 27.67 55.874 31.6515C55.6681 31.7457 55.4757 31.8618 55.2976 31.9947C54.7112 31.8372 54.1119 31.6914 53.5089 31.5606C53.4363 31.5447 53.3614 31.5307 53.2883 31.5153C53.9931 29.9756 54.4046 28.3033 54.482 26.577C54.506 26.0389 54.0895 25.5833 53.5514 25.5593C53.0148 25.5326 52.5577 25.9517 52.5337 26.4898C52.4067 29.3282 51.2292 31.9989 49.2184 34.0098C48.017 35.2113 46.6102 36.084 45.111 36.6336C42.5109 36.2687 39.8626 36.2687 37.2626 36.6336C35.7632 36.084 34.3566 35.2113 33.1551 34.0098C31.0098 31.8645 29.8283 29.0122 29.8283 25.9782C29.8283 22.9441 31.0098 20.0919 33.1551 17.9466C35.3005 15.8012 38.1529 14.6196 41.1868 14.6196C44.2206 14.6196 47.0731 15.8012 49.2184 17.9466C50.0805 18.8087 50.7929 19.7925 51.3358 20.8704C51.5781 21.3514 52.1644 21.5451 52.6453 21.3027C53.1264 21.0607 53.3199 20.4743 53.0777 19.9934C52.4413 18.7294 51.6068 17.5769 50.5975 16.5675C48.0838 14.0538 44.7417 12.6694 41.1869 12.6694C37.6321 12.6694 34.29 14.0538 31.7763 16.5675C29.2626 19.0813 27.8782 22.4233 27.8782 25.9781C27.8782 29.5329 29.2626 32.875 31.7763 35.3887C32.5014 36.1138 33.2902 36.7374 34.1246 37.2597C34.1248 37.2597 34.1251 37.2596 34.1253 37.2596C33.5191 37.4172 32.9174 37.5941 32.3224 37.793C31.8116 37.9638 31.536 38.5161 31.7068 39.027C31.8774 39.5377 32.4301 39.8133 32.9407 39.6427C38.2583 37.865 44.1155 37.865 49.4331 39.6427C49.5357 39.677 49.6399 39.6932 49.7424 39.6932C50.1502 39.6932 50.5305 39.4351 50.667 39.027C50.8378 38.5163 50.5622 37.9638 50.0514 37.793C49.4564 37.5941 48.8547 37.417 48.2485 37.2596C48.2487 37.2596 48.249 37.2597 48.2493 37.2597C49.0837 36.7374 49.8724 36.1138 50.5975 35.3887C51.239 34.7472 51.8052 34.0468 52.2969 33.3023C52.5656 33.3545 52.8325 33.4092 53.0954 33.4663C53.4455 33.5423 53.7942 33.6239 54.1396 33.7097C54.1288 33.7521 54.1176 33.7943 54.1086 33.8374C53.6331 36.094 53.6639 38.0899 54.2003 39.7692C54.6824 41.2787 55.5525 42.5016 56.7861 43.4041C58.2401 44.4677 59.9954 44.9272 61.5855 44.9272C62.7822 44.9272 63.8855 44.6668 64.6958 44.2079C65.6123 43.6887 66.3802 42.5949 66.9881 40.9526C67.269 41.2805 67.5353 41.6164 67.7863 41.9603C68.804 43.3545 69.5809 44.8911 70.0954 46.5271C70.3976 47.488 71.1477 48.2441 72.1018 48.5499L74.8462 49.429C75.5663 49.6597 76.0501 50.3225 76.0501 51.0786V55.6293C76.0501 56.3854 75.5663 57.0482 74.8462 57.2789L70.4245 58.6952C69.7171 58.9219 69.1184 59.4081 68.7388 60.0642C67.0017 63.0664 64.2705 65.5508 60.6207 67.4483C60.1991 67.6678 59.907 68.0602 59.8191 68.5253L58.4029 76.024C58.3638 76.2306 58.1828 76.3804 57.9725 76.3804H53.3679C53.1577 76.3804 52.9767 76.2304 52.9375 76.024L52.1532 71.8798C51.9988 71.0644 51.234 70.5228 50.4109 70.6475C48.4275 70.9474 46.3837 71.0993 44.3367 71.0993C42.8137 71.0993 41.3103 71.0144 39.8678 70.8468C39.0703 70.755 38.3272 71.2988 38.1782 72.0863L37.4328 76.024C37.3937 76.2306 37.2127 76.3804 37.0024 76.3804H32.3979C32.1876 76.3804 32.0066 76.2304 31.9669 76.0208L30.6034 68.9384C30.5156 68.4821 30.229 68.0941 29.8167 67.8739C23.5952 64.5524 20.3067 59.0036 20.3067 51.8273C20.3067 48.2014 21.1 44.9952 22.6644 42.2974C24.1243 39.7798 26.2565 37.6982 29.0018 36.1103C29.4679 35.8406 29.6272 35.2441 29.3576 34.7779C29.088 34.3117 28.4916 34.1527 28.0253 34.4221C22.7021 37.5013 19.4915 42.2522 18.6075 48.286V48.2858C18.5137 48.2773 18.4197 48.2692 18.3262 48.2595C18.3432 47.6085 18.2254 46.9516 17.9689 46.314C17.4032 44.9078 16.2412 43.8929 15.0084 43.7284C14.0369 43.5983 13.1123 44.0108 12.4707 44.8585C11.5404 46.0878 11.6921 47.0606 11.983 47.6602C12.4741 48.6721 13.7365 49.3879 15.8315 49.8379C15.7739 49.9242 15.7105 50.0108 15.6412 50.0978C14.4034 51.6502 12.9451 51.9935 11.9982 52.0258C11.4439 52.0446 11 52.4897 11 53.0444V53.0491C11 53.5962 11.4317 54.0425 11.9783 54.0675C12.0483 54.0707 12.1215 54.0724 12.1976 54.0724C13.3958 54.0724 15.3188 53.6305 17.1662 51.3139C17.4579 50.9483 17.6956 50.5625 17.8782 50.1639C18.0622 50.1847 18.239 50.2025 18.4083 50.2182C18.4083 50.2178 18.4083 50.2176 18.4085 50.2172C18.3752 50.7456 18.3568 51.2817 18.3568 51.8273C18.3568 55.8876 19.3247 59.5078 21.2336 62.5878C22.9937 65.4275 25.5136 67.7526 28.7259 69.5011L30.0516 76.3864C30.2647 77.5129 31.2515 78.3305 32.398 78.3305H37.0025C38.149 78.3305 39.1358 77.5129 39.349 76.3864L40.0229 72.826C41.4226 72.9743 42.8717 73.0494 44.3367 73.0494C46.3467 73.0494 48.3543 72.9094 50.3109 72.633L51.0214 76.3867C51.2347 77.5131 52.2215 78.3306 53.3678 78.3306H57.9724C59.1188 78.3306 60.1056 77.513 60.3189 76.3862L61.6978 69.0854C65.5932 67.0255 68.5294 64.3196 70.4266 61.0408C70.5634 60.8045 70.7739 60.6311 71.0194 60.5525L75.4409 59.1362C76.9716 58.6456 78 57.2363 78 55.629V51.0784C78 49.4711 76.9716 48.0619 75.4409 47.5716ZM66.1282 35.9831C65.7529 39.1925 64.7462 41.938 63.7346 42.5109C62.5849 43.1622 59.9304 43.2879 57.9374 41.83C55.9421 40.3704 55.278 37.7456 56.0167 34.2394C56.0167 34.2392 56.0167 34.2392 56.0167 34.2392C56.0909 33.8871 56.3411 33.5825 56.6859 33.4246C61.5675 31.1901 64.3819 30.4592 65.4274 30.4592C65.5852 30.4592 65.7028 30.4759 65.781 30.5065C66.0951 30.8411 66.507 32.744 66.1282 35.9831ZM13.7377 46.8088C13.6368 46.6007 13.875 46.235 14.026 46.0353C14.2653 45.7191 14.4858 45.6545 14.6524 45.6545C14.6876 45.6545 14.7205 45.6574 14.7506 45.6614C15.1989 45.7212 15.827 46.2146 16.1598 47.0417C16.2382 47.2365 16.34 47.559 16.3638 47.9613C15.014 47.6815 13.9653 47.2783 13.7377 46.8088Z" fill="black" fill-opacity="0.5"/>
</svg>
