<svg width="88" height="88" viewBox="0 0 88 88" fill="none" xmlns="http://www.w3.org/2000/svg">
<path d="M19.9297 9.96143H68.4062V61.9456L44.101 78.4659L19.9297 61.9456V9.96143Z" fill="#4770AC"/>
<path d="M19.9297 9.96143H68.4062V61.9456L44.101 78.4659L19.9297 61.9456V9.96143Z" fill="white" fill-opacity="0.25"/>
<path d="M25.2422 58.9843V15.4639H63.0938V58.9755L44.1095 71.8792L25.2422 58.9843Z" fill="#4770AC"/>
<path d="M25.2422 58.9843V15.4639H63.0938V58.9755L44.1095 71.8792L25.2422 58.9843Z" fill="white" fill-opacity="0.85"/>
<path d="M30.5547 48.3128V56.0227L44.1175 65.292L57.7812 56.0045V48.2952L44.1175 57.5821L30.5547 48.3128Z" fill="#7F0102"/>
<path d="M30.5547 48.3128V56.0227L44.1175 65.292L57.7812 56.0045V48.2952L44.1175 57.5821L30.5547 48.3128Z" fill="white" fill-opacity="0.5"/>
<path d="M30.5547 35.0967V42.8061L44.1175 52.0753L57.7812 42.7884V35.0791L44.1175 44.366L30.5547 35.0967Z" fill="#7F0102"/>
<path d="M30.5547 35.0967V42.8061L44.1175 52.0753L57.7812 42.7884V35.0791L44.1175 44.366L30.5547 35.0967Z" fill="white" fill-opacity="0.5"/>
<path d="M44.1681 33.2382L39.1116 35.9916L40.078 30.1602L35.9868 26.0301L41.6399 25.1795L44.1681 19.8735L46.6963 25.1795L52.3493 26.0301L48.2582 30.1602L49.2245 35.9916L44.1681 33.2382Z" fill="#7F0102"/>
<path d="M44.1681 33.2382L39.1116 35.9916L40.078 30.1602L35.9868 26.0301L41.6399 25.1795L44.1681 19.8735L46.6963 25.1795L52.3493 26.0301L48.2582 30.1602L49.2245 35.9916L44.1681 33.2382Z" fill="white" fill-opacity="0.5"/>
<path d="M68.4062 47.3102C68.6528 47.3102 68.8893 47.2088 69.0636 47.0282C69.238 46.8476 69.3359 46.6027 69.3359 46.3473V9.96126C69.3355 9.70617 69.2374 9.46167 69.0631 9.28145C68.8888 9.10122 68.6525 9 68.4062 9H19.9297C19.6831 9 19.4466 9.10145 19.2723 9.28203C19.0979 9.46261 19 9.70753 19 9.96291V61.9454C19.0001 62.1047 19.0383 62.2615 19.1112 62.4018C19.184 62.5421 19.2893 62.6615 19.4176 62.7493L43.5894 79.2696C43.7411 79.373 43.9187 79.4281 44.1002 79.4281C44.2818 79.4281 44.4594 79.373 44.611 79.2696L68.9162 62.7488C69.0452 62.6613 69.1511 62.542 69.2244 62.4015C69.2976 62.2611 69.336 62.104 69.3359 61.9443V55.9765C69.3359 55.7211 69.238 55.4762 69.0636 55.2956C68.8893 55.115 68.6528 55.0135 68.4062 55.0135C68.1597 55.0135 67.9232 55.115 67.7489 55.2956C67.5745 55.4762 67.4766 55.7211 67.4766 55.9765V61.4238L44.1016 77.3113L20.8594 61.4271V10.9258H67.4766V46.3473C67.4766 46.6027 67.5745 46.8476 67.7489 47.0282C67.9232 47.2088 68.1597 47.3102 68.4062 47.3102Z" fill="#4770AC"/>
<path d="M68.4062 47.3102C68.6528 47.3102 68.8893 47.2088 69.0636 47.0282C69.238 46.8476 69.3359 46.6027 69.3359 46.3473V9.96126C69.3355 9.70617 69.2374 9.46167 69.0631 9.28145C68.8888 9.10122 68.6525 9 68.4062 9H19.9297C19.6831 9 19.4466 9.10145 19.2723 9.28203C19.0979 9.46261 19 9.70753 19 9.96291V61.9454C19.0001 62.1047 19.0383 62.2615 19.1112 62.4018C19.184 62.5421 19.2893 62.6615 19.4176 62.7493L43.5894 79.2696C43.7411 79.373 43.9187 79.4281 44.1002 79.4281C44.2818 79.4281 44.4594 79.373 44.611 79.2696L68.9162 62.7488C69.0452 62.6613 69.1511 62.542 69.2244 62.4015C69.2976 62.2611 69.336 62.104 69.3359 61.9443V55.9765C69.3359 55.7211 69.238 55.4762 69.0636 55.2956C68.8893 55.115 68.6528 55.0135 68.4062 55.0135C68.1597 55.0135 67.9232 55.115 67.7489 55.2956C67.5745 55.4762 67.4766 55.7211 67.4766 55.9765V61.4238L44.1016 77.3113L20.8594 61.4271V10.9258H67.4766V46.3473C67.4766 46.6027 67.5745 46.8476 67.7489 47.0282C67.9232 47.2088 68.1597 47.3102 68.4062 47.3102Z" fill="black" fill-opacity="0.5"/>
<path d="M68.4062 47.3102C68.6528 47.3102 68.8893 47.2088 69.0636 47.0282C69.238 46.8476 69.3359 46.6027 69.3359 46.3473V9.96126C69.3355 9.70617 69.2374 9.46167 69.0631 9.28145C68.8888 9.10122 68.6525 9 68.4062 9H19.9297C19.6831 9 19.4466 9.10145 19.2723 9.28203C19.0979 9.46261 19 9.70753 19 9.96291V61.9454C19.0001 62.1047 19.0383 62.2615 19.1112 62.4018C19.184 62.5421 19.2893 62.6615 19.4176 62.7493L43.5894 79.2696C43.7411 79.373 43.9187 79.4281 44.1002 79.4281C44.2818 79.4281 44.4594 79.373 44.611 79.2696L68.9162 62.7488C69.0452 62.6613 69.1511 62.542 69.2244 62.4015C69.2976 62.2611 69.336 62.104 69.3359 61.9443V55.9765C69.3359 55.7211 69.238 55.4762 69.0636 55.2956C68.8893 55.115 68.6528 55.0135 68.4062 55.0135C68.1597 55.0135 67.9232 55.115 67.7489 55.2956C67.5745 55.4762 67.4766 55.7211 67.4766 55.9765V61.4238L44.1016 77.3113L20.8594 61.4271V10.9258H67.4766V46.3473C67.4766 46.6027 67.5745 46.8476 67.7489 47.0282C67.9232 47.2088 68.1597 47.3102 68.4062 47.3102Z" stroke="#4770AC" stroke-width="0.5"/>
<path d="M68.4062 47.3102C68.6528 47.3102 68.8893 47.2088 69.0636 47.0282C69.238 46.8476 69.3359 46.6027 69.3359 46.3473V9.96126C69.3355 9.70617 69.2374 9.46167 69.0631 9.28145C68.8888 9.10122 68.6525 9 68.4062 9H19.9297C19.6831 9 19.4466 9.10145 19.2723 9.28203C19.0979 9.46261 19 9.70753 19 9.96291V61.9454C19.0001 62.1047 19.0383 62.2615 19.1112 62.4018C19.184 62.5421 19.2893 62.6615 19.4176 62.7493L43.5894 79.2696C43.7411 79.373 43.9187 79.4281 44.1002 79.4281C44.2818 79.4281 44.4594 79.373 44.611 79.2696L68.9162 62.7488C69.0452 62.6613 69.1511 62.542 69.2244 62.4015C69.2976 62.2611 69.336 62.104 69.3359 61.9443V55.9765C69.3359 55.7211 69.238 55.4762 69.0636 55.2956C68.8893 55.115 68.6528 55.0135 68.4062 55.0135C68.1597 55.0135 67.9232 55.115 67.7489 55.2956C67.5745 55.4762 67.4766 55.7211 67.4766 55.9765V61.4238L44.1016 77.3113L20.8594 61.4271V10.9258H67.4766V46.3473C67.4766 46.6027 67.5745 46.8476 67.7489 47.0282C67.9232 47.2088 68.1597 47.3102 68.4062 47.3102Z" stroke="black" stroke-opacity="0.5" stroke-width="0.5"/>
<path d="M25.2422 32.7278C25.4888 32.7278 25.7252 32.6264 25.8996 32.4458C26.0739 32.2652 26.1719 32.0203 26.1719 31.7649V29.1536C26.1719 28.8982 26.0739 28.6533 25.8996 28.4727C25.7252 28.2921 25.4888 28.1907 25.2422 28.1907C24.9956 28.1907 24.7591 28.2921 24.5848 28.4727C24.4104 28.6533 24.3125 28.8982 24.3125 29.1536V31.7649C24.3125 32.0203 24.4104 32.2652 24.5848 32.4458C24.7591 32.6264 24.9956 32.7278 25.2422 32.7278Z" fill="#4770AC"/>
<path d="M25.2422 32.7278C25.4888 32.7278 25.7252 32.6264 25.8996 32.4458C26.0739 32.2652 26.1719 32.0203 26.1719 31.7649V29.1536C26.1719 28.8982 26.0739 28.6533 25.8996 28.4727C25.7252 28.2921 25.4888 28.1907 25.2422 28.1907C24.9956 28.1907 24.7591 28.2921 24.5848 28.4727C24.4104 28.6533 24.3125 28.8982 24.3125 29.1536V31.7649C24.3125 32.0203 24.4104 32.2652 24.5848 32.4458C24.7591 32.6264 24.9956 32.7278 25.2422 32.7278Z" fill="black" fill-opacity="0.5"/>
<path d="M24.3125 58.9841C24.3125 59.1434 24.3506 59.3003 24.4235 59.4406C24.4963 59.5809 24.6017 59.7003 24.7301 59.788L43.5974 72.6823C43.7492 72.7856 43.9268 72.8407 44.1085 72.8407C44.2901 72.8407 44.4678 72.7856 44.6195 72.6823L63.6037 59.7787C63.7327 59.6911 63.8386 59.5717 63.9119 59.4311C63.9851 59.2906 64.0235 59.1334 64.0234 58.9737V15.4637C64.023 15.2086 63.9249 14.9641 63.7506 14.7839C63.5763 14.6037 63.34 14.5024 63.0938 14.5024H25.2422C24.9956 14.5024 24.7591 14.6039 24.5848 14.7845C24.4104 14.9651 24.3125 15.21 24.3125 15.4654V22.6872C24.3125 22.9426 24.4104 23.1875 24.5848 23.3681C24.7591 23.5487 24.9956 23.6501 25.2422 23.6501C25.4888 23.6501 25.7252 23.5487 25.8996 23.3681C26.0739 23.1875 26.1719 22.9426 26.1719 22.6872V16.4283H62.1641V58.4553L44.1106 70.7256L26.1719 58.4664V38.2314C26.1719 37.976 26.0739 37.7311 25.8996 37.5505C25.7252 37.3699 25.4888 37.2685 25.2422 37.2685C24.9956 37.2685 24.7591 37.3699 24.5848 37.5505C24.4104 37.7311 24.3125 37.976 24.3125 38.2314V58.9841Z" fill="#4770AC"/>
<path d="M24.3125 58.9841C24.3125 59.1434 24.3506 59.3003 24.4235 59.4406C24.4963 59.5809 24.6017 59.7003 24.7301 59.788L43.5974 72.6823C43.7492 72.7856 43.9268 72.8407 44.1085 72.8407C44.2901 72.8407 44.4678 72.7856 44.6195 72.6823L63.6037 59.7787C63.7327 59.6911 63.8386 59.5717 63.9119 59.4311C63.9851 59.2906 64.0235 59.1334 64.0234 58.9737V15.4637C64.023 15.2086 63.9249 14.9641 63.7506 14.7839C63.5763 14.6037 63.34 14.5024 63.0938 14.5024H25.2422C24.9956 14.5024 24.7591 14.6039 24.5848 14.7845C24.4104 14.9651 24.3125 15.21 24.3125 15.4654V22.6872C24.3125 22.9426 24.4104 23.1875 24.5848 23.3681C24.7591 23.5487 24.9956 23.6501 25.2422 23.6501C25.4888 23.6501 25.7252 23.5487 25.8996 23.3681C26.0739 23.1875 26.1719 22.9426 26.1719 22.6872V16.4283H62.1641V58.4553L44.1106 70.7256L26.1719 58.4664V38.2314C26.1719 37.976 26.0739 37.7311 25.8996 37.5505C25.7252 37.3699 25.4888 37.2685 25.2422 37.2685C24.9956 37.2685 24.7591 37.3699 24.5848 37.5505C24.4104 37.7311 24.3125 37.976 24.3125 38.2314V58.9841Z" fill="black" fill-opacity="0.5"/>
<path d="M24.3125 58.9841C24.3125 59.1434 24.3506 59.3003 24.4235 59.4406C24.4963 59.5809 24.6017 59.7003 24.7301 59.788L43.5974 72.6823C43.7492 72.7856 43.9268 72.8407 44.1085 72.8407C44.2901 72.8407 44.4678 72.7856 44.6195 72.6823L63.6037 59.7787C63.7327 59.6911 63.8386 59.5717 63.9119 59.4311C63.9851 59.2906 64.0235 59.1334 64.0234 58.9737V15.4637C64.023 15.2086 63.9249 14.9641 63.7506 14.7839C63.5763 14.6037 63.34 14.5024 63.0938 14.5024H25.2422C24.9956 14.5024 24.7591 14.6039 24.5848 14.7845C24.4104 14.9651 24.3125 15.21 24.3125 15.4654V22.6872C24.3125 22.9426 24.4104 23.1875 24.5848 23.3681C24.7591 23.5487 24.9956 23.6501 25.2422 23.6501C25.4888 23.6501 25.7252 23.5487 25.8996 23.3681C26.0739 23.1875 26.1719 22.9426 26.1719 22.6872V16.4283H62.1641V58.4553L44.1106 70.7256L26.1719 58.4664V38.2314C26.1719 37.976 26.0739 37.7311 25.8996 37.5505C25.7252 37.3699 25.4888 37.2685 25.2422 37.2685C24.9956 37.2685 24.7591 37.3699 24.5848 37.5505C24.4104 37.7311 24.3125 37.976 24.3125 38.2314V58.9841Z" stroke="#4770AC" stroke-width="0.5"/>
<path d="M24.3125 58.9841C24.3125 59.1434 24.3506 59.3003 24.4235 59.4406C24.4963 59.5809 24.6017 59.7003 24.7301 59.788L43.5974 72.6823C43.7492 72.7856 43.9268 72.8407 44.1085 72.8407C44.2901 72.8407 44.4678 72.7856 44.6195 72.6823L63.6037 59.7787C63.7327 59.6911 63.8386 59.5717 63.9119 59.4311C63.9851 59.2906 64.0235 59.1334 64.0234 58.9737V15.4637C64.023 15.2086 63.9249 14.9641 63.7506 14.7839C63.5763 14.6037 63.34 14.5024 63.0938 14.5024H25.2422C24.9956 14.5024 24.7591 14.6039 24.5848 14.7845C24.4104 14.9651 24.3125 15.21 24.3125 15.4654V22.6872C24.3125 22.9426 24.4104 23.1875 24.5848 23.3681C24.7591 23.5487 24.9956 23.6501 25.2422 23.6501C25.4888 23.6501 25.7252 23.5487 25.8996 23.3681C26.0739 23.1875 26.1719 22.9426 26.1719 22.6872V16.4283H62.1641V58.4553L44.1106 70.7256L26.1719 58.4664V38.2314C26.1719 37.976 26.0739 37.7311 25.8996 37.5505C25.7252 37.3699 25.4888 37.2685 25.2422 37.2685C24.9956 37.2685 24.7591 37.3699 24.5848 37.5505C24.4104 37.7311 24.3125 37.976 24.3125 38.2314V58.9841Z" stroke="black" stroke-opacity="0.5" stroke-width="0.5"/>
<path d="M29.625 56.0228C29.625 56.1822 29.6631 56.339 29.736 56.4793C29.8088 56.6196 29.9142 56.739 30.0426 56.8267L43.6054 66.096C43.7571 66.1994 43.9348 66.2545 44.1164 66.2545C44.2981 66.2545 44.4757 66.1994 44.6275 66.096L58.2913 56.8086C58.4202 56.721 58.526 56.6015 58.5993 56.461C58.6726 56.3205 58.7109 56.1633 58.7109 56.0036V48.2953C58.7109 48.1217 58.6656 47.9512 58.5796 47.8021C58.4937 47.6529 58.3705 47.5306 58.2229 47.4481C58.0753 47.3656 57.909 47.326 57.7415 47.3334C57.5739 47.3408 57.4115 47.3951 57.2712 47.4903L44.1186 56.4306L31.0668 47.509C30.9267 47.4132 30.7641 47.3585 30.5963 47.3507C30.4285 47.343 30.2619 47.3824 30.114 47.4648C29.9661 47.5473 29.8426 47.6697 29.7565 47.819C29.6704 47.9683 29.625 48.139 29.625 48.3129V56.0228ZM31.4844 50.1018L43.6054 58.3861C43.7571 58.4895 43.9348 58.5445 44.1164 58.5445C44.2981 58.5445 44.4757 58.4895 44.6275 58.3861L56.8516 50.0775V55.4836L44.1186 64.1394L31.4844 55.5045V50.1018Z" fill="#4770AC"/>
<path d="M29.625 56.0228C29.625 56.1822 29.6631 56.339 29.736 56.4793C29.8088 56.6196 29.9142 56.739 30.0426 56.8267L43.6054 66.096C43.7571 66.1994 43.9348 66.2545 44.1164 66.2545C44.2981 66.2545 44.4757 66.1994 44.6275 66.096L58.2913 56.8086C58.4202 56.721 58.526 56.6015 58.5993 56.461C58.6726 56.3205 58.7109 56.1633 58.7109 56.0036V48.2953C58.7109 48.1217 58.6656 47.9512 58.5796 47.8021C58.4937 47.6529 58.3705 47.5306 58.2229 47.4481C58.0753 47.3656 57.909 47.326 57.7415 47.3334C57.5739 47.3408 57.4115 47.3951 57.2712 47.4903L44.1186 56.4306L31.0668 47.509C30.9267 47.4132 30.7641 47.3585 30.5963 47.3507C30.4285 47.343 30.2619 47.3824 30.114 47.4648C29.9661 47.5473 29.8426 47.6697 29.7565 47.819C29.6704 47.9683 29.625 48.139 29.625 48.3129V56.0228ZM31.4844 50.1018L43.6054 58.3861C43.7571 58.4895 43.9348 58.5445 44.1164 58.5445C44.2981 58.5445 44.4757 58.4895 44.6275 58.3861L56.8516 50.0775V55.4836L44.1186 64.1394L31.4844 55.5045V50.1018Z" fill="black" fill-opacity="0.5"/>
<path d="M29.625 56.0228C29.625 56.1822 29.6631 56.339 29.736 56.4793C29.8088 56.6196 29.9142 56.739 30.0426 56.8267L43.6054 66.096C43.7571 66.1994 43.9348 66.2545 44.1164 66.2545C44.2981 66.2545 44.4757 66.1994 44.6275 66.096L58.2913 56.8086C58.4202 56.721 58.526 56.6015 58.5993 56.461C58.6726 56.3205 58.7109 56.1633 58.7109 56.0036V48.2953C58.7109 48.1217 58.6656 47.9512 58.5796 47.8021C58.4937 47.6529 58.3705 47.5306 58.2229 47.4481C58.0753 47.3656 57.909 47.326 57.7415 47.3334C57.5739 47.3408 57.4115 47.3951 57.2712 47.4903L44.1186 56.4306L31.0668 47.509C30.9267 47.4132 30.7641 47.3585 30.5963 47.3507C30.4285 47.343 30.2619 47.3824 30.114 47.4648C29.9661 47.5473 29.8426 47.6697 29.7565 47.819C29.6704 47.9683 29.625 48.139 29.625 48.3129V56.0228ZM31.4844 50.1018L43.6054 58.3861C43.7571 58.4895 43.9348 58.5445 44.1164 58.5445C44.2981 58.5445 44.4757 58.4895 44.6275 58.3861L56.8516 50.0775V55.4836L44.1186 64.1394L31.4844 55.5045V50.1018Z" stroke="#4770AC" stroke-width="0.5"/>
<path d="M29.625 56.0228C29.625 56.1822 29.6631 56.339 29.736 56.4793C29.8088 56.6196 29.9142 56.739 30.0426 56.8267L43.6054 66.096C43.7571 66.1994 43.9348 66.2545 44.1164 66.2545C44.2981 66.2545 44.4757 66.1994 44.6275 66.096L58.2913 56.8086C58.4202 56.721 58.526 56.6015 58.5993 56.461C58.6726 56.3205 58.7109 56.1633 58.7109 56.0036V48.2953C58.7109 48.1217 58.6656 47.9512 58.5796 47.8021C58.4937 47.6529 58.3705 47.5306 58.2229 47.4481C58.0753 47.3656 57.909 47.326 57.7415 47.3334C57.5739 47.3408 57.4115 47.3951 57.2712 47.4903L44.1186 56.4306L31.0668 47.509C30.9267 47.4132 30.7641 47.3585 30.5963 47.3507C30.4285 47.343 30.2619 47.3824 30.114 47.4648C29.9661 47.5473 29.8426 47.6697 29.7565 47.819C29.6704 47.9683 29.625 48.139 29.625 48.3129V56.0228ZM31.4844 50.1018L43.6054 58.3861C43.7571 58.4895 43.9348 58.5445 44.1164 58.5445C44.2981 58.5445 44.4757 58.4895 44.6275 58.3861L56.8516 50.0775V55.4836L44.1186 64.1394L31.4844 55.5045V50.1018Z" stroke="black" stroke-opacity="0.5" stroke-width="0.5"/>
<path d="M30.1137 34.2487C29.966 34.3312 29.8426 34.4536 29.7565 34.6029C29.6705 34.7521 29.625 34.9228 29.625 35.0966V42.8065C29.625 42.9658 29.6632 43.1225 29.7361 43.2627C29.809 43.4029 29.9143 43.5222 30.0426 43.6099L43.6054 52.8792C43.7571 52.9825 43.9348 53.0376 44.1164 53.0376C44.2981 53.0376 44.4757 52.9825 44.6275 52.8792L58.2913 43.5934C58.4202 43.5058 58.5261 43.3864 58.5994 43.2458C58.6726 43.1053 58.711 42.9481 58.7109 42.7884V35.0812C58.7111 34.9075 58.6658 34.7369 58.58 34.5876C58.4941 34.4384 58.3708 34.316 58.2232 34.2334C58.0756 34.1509 57.9091 34.1113 57.7415 34.1188C57.5739 34.1264 57.4114 34.1807 57.2712 34.2762L44.1186 43.2137L31.0668 34.2927C30.9266 34.1969 30.7639 34.1423 30.5961 34.1345C30.4283 34.1268 30.2616 34.1662 30.1137 34.2487ZM31.4844 36.886L43.6054 45.1698C43.7571 45.2732 43.9348 45.3282 44.1164 45.3282C44.2981 45.3282 44.4757 45.2732 44.6275 45.1698L56.8516 36.8612V42.2678L44.1186 50.9225L31.4844 42.2893V36.886Z" fill="#4770AC"/>
<path d="M30.1137 34.2487C29.966 34.3312 29.8426 34.4536 29.7565 34.6029C29.6705 34.7521 29.625 34.9228 29.625 35.0966V42.8065C29.625 42.9658 29.6632 43.1225 29.7361 43.2627C29.809 43.4029 29.9143 43.5222 30.0426 43.6099L43.6054 52.8792C43.7571 52.9825 43.9348 53.0376 44.1164 53.0376C44.2981 53.0376 44.4757 52.9825 44.6275 52.8792L58.2913 43.5934C58.4202 43.5058 58.5261 43.3864 58.5994 43.2458C58.6726 43.1053 58.711 42.9481 58.7109 42.7884V35.0812C58.7111 34.9075 58.6658 34.7369 58.58 34.5876C58.4941 34.4384 58.3708 34.316 58.2232 34.2334C58.0756 34.1509 57.9091 34.1113 57.7415 34.1188C57.5739 34.1264 57.4114 34.1807 57.2712 34.2762L44.1186 43.2137L31.0668 34.2927C30.9266 34.1969 30.7639 34.1423 30.5961 34.1345C30.4283 34.1268 30.2616 34.1662 30.1137 34.2487ZM31.4844 36.886L43.6054 45.1698C43.7571 45.2732 43.9348 45.3282 44.1164 45.3282C44.2981 45.3282 44.4757 45.2732 44.6275 45.1698L56.8516 36.8612V42.2678L44.1186 50.9225L31.4844 42.2893V36.886Z" fill="black" fill-opacity="0.5"/>
<path d="M30.1137 34.2487C29.966 34.3312 29.8426 34.4536 29.7565 34.6029C29.6705 34.7521 29.625 34.9228 29.625 35.0966V42.8065C29.625 42.9658 29.6632 43.1225 29.7361 43.2627C29.809 43.4029 29.9143 43.5222 30.0426 43.6099L43.6054 52.8792C43.7571 52.9825 43.9348 53.0376 44.1164 53.0376C44.2981 53.0376 44.4757 52.9825 44.6275 52.8792L58.2913 43.5934C58.4202 43.5058 58.5261 43.3864 58.5994 43.2458C58.6726 43.1053 58.711 42.9481 58.7109 42.7884V35.0812C58.7111 34.9075 58.6658 34.7369 58.58 34.5876C58.4941 34.4384 58.3708 34.316 58.2232 34.2334C58.0756 34.1509 57.9091 34.1113 57.7415 34.1188C57.5739 34.1264 57.4114 34.1807 57.2712 34.2762L44.1186 43.2137L31.0668 34.2927C30.9266 34.1969 30.7639 34.1423 30.5961 34.1345C30.4283 34.1268 30.2616 34.1662 30.1137 34.2487ZM31.4844 36.886L43.6054 45.1698C43.7571 45.2732 43.9348 45.3282 44.1164 45.3282C44.2981 45.3282 44.4757 45.2732 44.6275 45.1698L56.8516 36.8612V42.2678L44.1186 50.9225L31.4844 42.2893V36.886Z" stroke="#4770AC" stroke-width="0.5"/>
<path d="M30.1137 34.2487C29.966 34.3312 29.8426 34.4536 29.7565 34.6029C29.6705 34.7521 29.625 34.9228 29.625 35.0966V42.8065C29.625 42.9658 29.6632 43.1225 29.7361 43.2627C29.809 43.4029 29.9143 43.5222 30.0426 43.6099L43.6054 52.8792C43.7571 52.9825 43.9348 53.0376 44.1164 53.0376C44.2981 53.0376 44.4757 52.9825 44.6275 52.8792L58.2913 43.5934C58.4202 43.5058 58.5261 43.3864 58.5994 43.2458C58.6726 43.1053 58.711 42.9481 58.7109 42.7884V35.0812C58.7111 34.9075 58.6658 34.7369 58.58 34.5876C58.4941 34.4384 58.3708 34.316 58.2232 34.2334C58.0756 34.1509 57.9091 34.1113 57.7415 34.1188C57.5739 34.1264 57.4114 34.1807 57.2712 34.2762L44.1186 43.2137L31.0668 34.2927C30.9266 34.1969 30.7639 34.1423 30.5961 34.1345C30.4283 34.1268 30.2616 34.1662 30.1137 34.2487ZM31.4844 36.886L43.6054 45.1698C43.7571 45.2732 43.9348 45.3282 44.1164 45.3282C44.2981 45.3282 44.4757 45.2732 44.6275 45.1698L56.8516 36.8612V42.2678L44.1186 50.9225L31.4844 42.2893V36.886Z" stroke="black" stroke-opacity="0.5" stroke-width="0.5"/>
<path d="M53.2338 25.7322C53.18 25.5614 53.0812 25.4096 52.9486 25.2939C52.816 25.1782 52.6547 25.1032 52.4831 25.0774L47.3135 24.2993L45.0015 19.4473C44.9247 19.2863 44.806 19.1507 44.6587 19.0559C44.5114 18.9611 44.3414 18.9109 44.168 18.9109C43.9946 18.9109 43.8246 18.9611 43.6773 19.0559C43.53 19.1507 43.4113 19.2863 43.3345 19.4473L41.0224 24.2993L35.8529 25.0774C35.6812 25.1031 35.5199 25.178 35.3872 25.2938C35.2545 25.4095 35.1558 25.5615 35.1022 25.7323C35.0485 25.9032 35.0422 26.0862 35.0838 26.2606C35.1254 26.435 35.2133 26.5939 35.3375 26.7193L39.0786 30.4961L38.1957 35.8285C38.1665 36.0057 38.1857 36.1878 38.2513 36.3542C38.3169 36.5206 38.4261 36.6647 38.5666 36.7702C38.7071 36.8756 38.8733 36.9383 39.0464 36.951C39.2196 36.9637 39.3926 36.9259 39.5461 36.842L44.168 34.3258L48.7899 36.842C48.9434 36.9256 49.1165 36.963 49.2895 36.9501C49.4625 36.9371 49.6286 36.8743 49.7689 36.7686C49.9093 36.663 50.0183 36.5188 50.0836 36.3524C50.149 36.186 50.168 36.0039 50.1387 35.8268L49.2574 30.4961L52.9984 26.7176C53.1223 26.5923 53.2099 26.4337 53.2515 26.2596C53.2931 26.0855 53.2869 25.9028 53.2338 25.7322ZM47.6089 29.4688C47.5012 29.5779 47.4207 29.7125 47.3745 29.861C47.3282 30.0095 47.3175 30.1674 47.3433 30.3211L47.9903 34.2278L44.601 32.3851C44.4674 32.3124 44.3188 32.2745 44.168 32.2745C44.0171 32.2745 43.8686 32.3124 43.735 32.3851L40.3467 34.23L40.9938 30.3233C41.0196 30.1696 41.0089 30.0117 40.9626 29.8632C40.9163 29.7147 40.8358 29.5801 40.7281 29.471L37.9858 26.7028L41.7747 26.1327C41.9238 26.1104 42.0655 26.0508 42.1874 25.9591C42.3093 25.8673 42.4078 25.7462 42.4744 25.6061L44.168 22.0494L45.8627 25.6056C45.9292 25.7456 46.0277 25.8668 46.1496 25.9585C46.2715 26.0503 46.4132 26.1099 46.5623 26.1322L50.3512 26.7022L47.6089 29.4688Z" fill="#4770AC"/>
<path d="M53.2338 25.7322C53.18 25.5614 53.0812 25.4096 52.9486 25.2939C52.816 25.1782 52.6547 25.1032 52.4831 25.0774L47.3135 24.2993L45.0015 19.4473C44.9247 19.2863 44.806 19.1507 44.6587 19.0559C44.5114 18.9611 44.3414 18.9109 44.168 18.9109C43.9946 18.9109 43.8246 18.9611 43.6773 19.0559C43.53 19.1507 43.4113 19.2863 43.3345 19.4473L41.0224 24.2993L35.8529 25.0774C35.6812 25.1031 35.5199 25.178 35.3872 25.2938C35.2545 25.4095 35.1558 25.5615 35.1022 25.7323C35.0485 25.9032 35.0422 26.0862 35.0838 26.2606C35.1254 26.435 35.2133 26.5939 35.3375 26.7193L39.0786 30.4961L38.1957 35.8285C38.1665 36.0057 38.1857 36.1878 38.2513 36.3542C38.3169 36.5206 38.4261 36.6647 38.5666 36.7702C38.7071 36.8756 38.8733 36.9383 39.0464 36.951C39.2196 36.9637 39.3926 36.9259 39.5461 36.842L44.168 34.3258L48.7899 36.842C48.9434 36.9256 49.1165 36.963 49.2895 36.9501C49.4625 36.9371 49.6286 36.8743 49.7689 36.7686C49.9093 36.663 50.0183 36.5188 50.0836 36.3524C50.149 36.186 50.168 36.0039 50.1387 35.8268L49.2574 30.4961L52.9984 26.7176C53.1223 26.5923 53.2099 26.4337 53.2515 26.2596C53.2931 26.0855 53.2869 25.9028 53.2338 25.7322ZM47.6089 29.4688C47.5012 29.5779 47.4207 29.7125 47.3745 29.861C47.3282 30.0095 47.3175 30.1674 47.3433 30.3211L47.9903 34.2278L44.601 32.3851C44.4674 32.3124 44.3188 32.2745 44.168 32.2745C44.0171 32.2745 43.8686 32.3124 43.735 32.3851L40.3467 34.23L40.9938 30.3233C41.0196 30.1696 41.0089 30.0117 40.9626 29.8632C40.9163 29.7147 40.8358 29.5801 40.7281 29.471L37.9858 26.7028L41.7747 26.1327C41.9238 26.1104 42.0655 26.0508 42.1874 25.9591C42.3093 25.8673 42.4078 25.7462 42.4744 25.6061L44.168 22.0494L45.8627 25.6056C45.9292 25.7456 46.0277 25.8668 46.1496 25.9585C46.2715 26.0503 46.4132 26.1099 46.5623 26.1322L50.3512 26.7022L47.6089 29.4688Z" fill="black" fill-opacity="0.5"/>
</svg>
