<svg width="88" height="88" viewBox="0 0 88 88" fill="none" xmlns="http://www.w3.org/2000/svg">
<path d="M58.483 35.428L58.3918 35.5192V64.9397H28.9735V35.5192L28.8823 35.428L43.6826 20.6299L58.483 35.428Z" fill="#4770AC"/>
<path d="M58.483 35.428L58.3918 35.5192V64.9397H28.9735V35.5192L28.8823 35.428L43.6826 20.6299L58.483 35.428Z" fill="white" fill-opacity="0.85"/>
<path d="M56.8739 33.8206V21.9326H50.0352V26.9819" fill="#7F0102"/>
<path d="M56.8739 33.8206V21.9326H50.0352V26.9819" fill="white" fill-opacity="0.5"/>
<path d="M48.4866 40.9863H38.8789V54.5076H48.4866V40.9863Z" fill="#4770AC"/>
<path d="M48.4866 40.9863H38.8789V54.5076H48.4866V40.9863Z" fill="white" fill-opacity="0.25"/>
<path d="M67.9164 16.5437C67.3289 16.0368 66.4425 16.1026 65.9358 16.6897C65.4291 17.2768 65.4944 18.1639 66.0817 18.6703C73.4583 25.0344 77.6889 34.2666 77.6889 44C77.6889 59.2718 67.3731 72.5904 52.6028 76.3885C51.8516 76.5818 51.3992 77.3473 51.5925 78.0982C51.7556 78.732 52.3259 79.1532 52.9516 79.1532C53.0673 79.1532 53.185 79.1388 53.3023 79.1087C69.3141 74.991 80.4972 60.554 80.4972 43.9999C80.4974 33.4491 75.9117 23.4417 67.9164 16.5437Z" fill="#4770AC"/>
<path d="M67.9164 16.5437C67.3289 16.0368 66.4425 16.1026 65.9358 16.6897C65.4291 17.2768 65.4944 18.1639 66.0817 18.6703C73.4583 25.0344 77.6889 34.2666 77.6889 44C77.6889 59.2718 67.3731 72.5904 52.6028 76.3885C51.8516 76.5818 51.3992 77.3473 51.5925 78.0982C51.7556 78.732 52.3259 79.1532 52.9516 79.1532C53.0673 79.1532 53.185 79.1388 53.3023 79.1087C69.3141 74.991 80.4972 60.554 80.4972 43.9999C80.4974 33.4491 75.9117 23.4417 67.9164 16.5437Z" fill="black" fill-opacity="0.5"/>
<path d="M67.9164 16.5437C67.3289 16.0368 66.4425 16.1026 65.9358 16.6897C65.4291 17.2768 65.4944 18.1639 66.0817 18.6703C73.4583 25.0344 77.6889 34.2666 77.6889 44C77.6889 59.2718 67.3731 72.5904 52.6028 76.3885C51.8516 76.5818 51.3992 77.3473 51.5925 78.0982C51.7556 78.732 52.3259 79.1532 52.9516 79.1532C53.0673 79.1532 53.185 79.1388 53.3023 79.1087C69.3141 74.991 80.4972 60.554 80.4972 43.9999C80.4974 33.4491 75.9117 23.4417 67.9164 16.5437Z" stroke="#4770AC" stroke-width="0.5"/>
<path d="M67.9164 16.5437C67.3289 16.0368 66.4425 16.1026 65.9358 16.6897C65.4291 17.2768 65.4944 18.1639 66.0817 18.6703C73.4583 25.0344 77.6889 34.2666 77.6889 44C77.6889 59.2718 67.3731 72.5904 52.6028 76.3885C51.8516 76.5818 51.3992 77.3473 51.5925 78.0982C51.7556 78.732 52.3259 79.1532 52.9516 79.1532C53.0673 79.1532 53.185 79.1388 53.3023 79.1087C69.3141 74.991 80.4972 60.554 80.4972 43.9999C80.4974 33.4491 75.9117 23.4417 67.9164 16.5437Z" stroke="black" stroke-opacity="0.5" stroke-width="0.5"/>
<path d="M42.7403 10.3308L48.0922 14.9858C48.3641 15.2224 48.7001 15.3384 49.0347 15.3384C49.4347 15.3384 49.8328 15.1724 50.1165 14.8481C50.6373 14.2526 50.5754 13.3489 49.9782 12.8295L47.738 10.8807C52.8161 11.4247 57.707 13.0915 62.0572 15.7846C62.2926 15.9306 62.5541 16 62.8124 16C63.292 16 63.761 15.7599 64.0326 15.3238C64.4505 14.6525 64.2436 13.7704 63.5703 13.3535C58.9017 10.4635 53.66 8.66298 48.2164 8.05425L50.4362 6.63543C51.1033 6.20913 51.2974 5.3239 50.8699 4.65882C50.4424 3.99358 49.5549 3.80001 48.8878 4.22631L42.909 8.04804C42.5289 8.29112 42.2857 8.69831 42.2525 9.14738C42.2191 9.59644 42.4 10.0348 42.7403 10.3308Z" fill="#4770AC"/>
<path d="M42.7403 10.3308L48.0922 14.9858C48.3641 15.2224 48.7001 15.3384 49.0347 15.3384C49.4347 15.3384 49.8328 15.1724 50.1165 14.8481C50.6373 14.2526 50.5754 13.3489 49.9782 12.8295L47.738 10.8807C52.8161 11.4247 57.707 13.0915 62.0572 15.7846C62.2926 15.9306 62.5541 16 62.8124 16C63.292 16 63.761 15.7599 64.0326 15.3238C64.4505 14.6525 64.2436 13.7704 63.5703 13.3535C58.9017 10.4635 53.66 8.66298 48.2164 8.05425L50.4362 6.63543C51.1033 6.20913 51.2974 5.3239 50.8699 4.65882C50.4424 3.99358 49.5549 3.80001 48.8878 4.22631L42.909 8.04804C42.5289 8.29112 42.2857 8.69831 42.2525 9.14738C42.2191 9.59644 42.4 10.0348 42.7403 10.3308Z" fill="black" fill-opacity="0.5"/>
<path d="M42.7403 10.3308L48.0922 14.9858C48.3641 15.2224 48.7001 15.3384 49.0347 15.3384C49.4347 15.3384 49.8328 15.1724 50.1165 14.8481C50.6373 14.2526 50.5754 13.3489 49.9782 12.8295L47.738 10.8807C52.8161 11.4247 57.707 13.0915 62.0572 15.7846C62.2926 15.9306 62.5541 16 62.8124 16C63.292 16 63.761 15.7599 64.0326 15.3238C64.4505 14.6525 64.2436 13.7704 63.5703 13.3535C58.9017 10.4635 53.66 8.66298 48.2164 8.05425L50.4362 6.63543C51.1033 6.20913 51.2974 5.3239 50.8699 4.65882C50.4424 3.99358 49.5549 3.80001 48.8878 4.22631L42.909 8.04804C42.5289 8.29112 42.2857 8.69831 42.2525 9.14738C42.2191 9.59644 42.4 10.0348 42.7403 10.3308Z" stroke="#4770AC" stroke-width="0.5"/>
<path d="M42.7403 10.3308L48.0922 14.9858C48.3641 15.2224 48.7001 15.3384 49.0347 15.3384C49.4347 15.3384 49.8328 15.1724 50.1165 14.8481C50.6373 14.2526 50.5754 13.3489 49.9782 12.8295L47.738 10.8807C52.8161 11.4247 57.707 13.0915 62.0572 15.7846C62.2926 15.9306 62.5541 16 62.8124 16C63.292 16 63.761 15.7599 64.0326 15.3238C64.4505 14.6525 64.2436 13.7704 63.5703 13.3535C58.9017 10.4635 53.66 8.66298 48.2164 8.05425L50.4362 6.63543C51.1033 6.20913 51.2974 5.3239 50.8699 4.65882C50.4424 3.99358 49.5549 3.80001 48.8878 4.22631L42.909 8.04804C42.5289 8.29112 42.2857 8.69831 42.2525 9.14738C42.2191 9.59644 42.4 10.0348 42.7403 10.3308Z" stroke="black" stroke-opacity="0.5" stroke-width="0.5"/>
<path d="M45.5458 77.7861L40.3071 73.2169C39.7226 72.7069 38.8355 72.7675 38.3257 73.352C37.8158 73.9364 37.8765 74.8236 38.4608 75.3334L40.6543 77.2466C23.8994 75.4478 10.8083 61.2247 10.8083 43.9998C10.8083 36.4052 13.2892 29.2474 17.9833 23.3001C22.5372 17.5299 28.9464 13.3664 36.0301 11.5768C36.7821 11.3868 37.2376 10.6232 37.0476 9.87113C36.8576 9.1191 36.0947 8.66378 35.3419 8.85363C27.6616 10.7943 20.7139 15.3066 15.7788 21.5599C10.6897 28.008 8 35.7674 8 43.9998C8 62.6142 22.1042 77.9941 40.1868 80.0197L38.0129 81.413C37.3599 81.8314 37.1699 82.7003 37.5883 83.3531C37.8566 83.7714 38.3094 83.9999 38.7721 83.9999C39.0315 83.9999 39.294 83.928 39.5285 83.7777L45.3809 80.0264C45.7529 79.7878 45.991 79.3881 46.0235 78.9473C46.0559 78.5069 45.879 78.0767 45.5458 77.7861Z" fill="#4770AC"/>
<path d="M45.5458 77.7861L40.3071 73.2169C39.7226 72.7069 38.8355 72.7675 38.3257 73.352C37.8158 73.9364 37.8765 74.8236 38.4608 75.3334L40.6543 77.2466C23.8994 75.4478 10.8083 61.2247 10.8083 43.9998C10.8083 36.4052 13.2892 29.2474 17.9833 23.3001C22.5372 17.5299 28.9464 13.3664 36.0301 11.5768C36.7821 11.3868 37.2376 10.6232 37.0476 9.87113C36.8576 9.1191 36.0947 8.66378 35.3419 8.85363C27.6616 10.7943 20.7139 15.3066 15.7788 21.5599C10.6897 28.008 8 35.7674 8 43.9998C8 62.6142 22.1042 77.9941 40.1868 80.0197L38.0129 81.413C37.3599 81.8314 37.1699 82.7003 37.5883 83.3531C37.8566 83.7714 38.3094 83.9999 38.7721 83.9999C39.0315 83.9999 39.294 83.928 39.5285 83.7777L45.3809 80.0264C45.7529 79.7878 45.991 79.3881 46.0235 78.9473C46.0559 78.5069 45.879 78.0767 45.5458 77.7861Z" fill="black" fill-opacity="0.5"/>
<path d="M45.5458 77.7861L40.3071 73.2169C39.7226 72.7069 38.8355 72.7675 38.3257 73.352C37.8158 73.9364 37.8765 74.8236 38.4608 75.3334L40.6543 77.2466C23.8994 75.4478 10.8083 61.2247 10.8083 43.9998C10.8083 36.4052 13.2892 29.2474 17.9833 23.3001C22.5372 17.5299 28.9464 13.3664 36.0301 11.5768C36.7821 11.3868 37.2376 10.6232 37.0476 9.87113C36.8576 9.1191 36.0947 8.66378 35.3419 8.85363C27.6616 10.7943 20.7139 15.3066 15.7788 21.5599C10.6897 28.008 8 35.7674 8 43.9998C8 62.6142 22.1042 77.9941 40.1868 80.0197L38.0129 81.413C37.3599 81.8314 37.1699 82.7003 37.5883 83.3531C37.8566 83.7714 38.3094 83.9999 38.7721 83.9999C39.0315 83.9999 39.294 83.928 39.5285 83.7777L45.3809 80.0264C45.7529 79.7878 45.991 79.3881 46.0235 78.9473C46.0559 78.5069 45.879 78.0767 45.5458 77.7861Z" stroke="#4770AC" stroke-width="0.5"/>
<path d="M45.5458 77.7861L40.3071 73.2169C39.7226 72.7069 38.8355 72.7675 38.3257 73.352C37.8158 73.9364 37.8765 74.8236 38.4608 75.3334L40.6543 77.2466C23.8994 75.4478 10.8083 61.2247 10.8083 43.9998C10.8083 36.4052 13.2892 29.2474 17.9833 23.3001C22.5372 17.5299 28.9464 13.3664 36.0301 11.5768C36.7821 11.3868 37.2376 10.6232 37.0476 9.87113C36.8576 9.1191 36.0947 8.66378 35.3419 8.85363C27.6616 10.7943 20.7139 15.3066 15.7788 21.5599C10.6897 28.008 8 35.7674 8 43.9998C8 62.6142 22.1042 77.9941 40.1868 80.0197L38.0129 81.413C37.3599 81.8314 37.1699 82.7003 37.5883 83.3531C37.8566 83.7714 38.3094 83.9999 38.7721 83.9999C39.0315 83.9999 39.294 83.928 39.5285 83.7777L45.3809 80.0264C45.7529 79.7878 45.991 79.3881 46.0235 78.9473C46.0559 78.5069 45.879 78.0767 45.5458 77.7861Z" stroke="black" stroke-opacity="0.5" stroke-width="0.5"/>
<path d="M28.8596 54.3976C27.96 54.3976 27.2308 55.1268 27.2308 56.0264V64.9384C27.2308 65.838 27.96 66.5672 28.8596 66.5672H58.2787C59.1783 66.5672 59.9075 65.838 59.9075 64.9384V39.2707L63.2198 42.583C63.5377 42.9008 63.9547 43.0601 64.3715 43.0601C64.7883 43.0601 65.2051 42.9012 65.5232 42.583C66.1593 41.9468 66.1593 40.9155 65.5232 40.2796L58.3894 33.1458V21.9327C58.3894 21.0331 57.6601 20.3038 56.7605 20.3038H49.9218C49.0222 20.3038 48.293 21.0331 48.293 21.9327V23.0496L44.7205 19.4771C44.0844 18.841 43.053 18.841 42.4171 19.4771L21.6148 40.2799C20.9787 40.916 20.9787 41.9474 21.6148 42.5833C22.2509 43.2194 23.2822 43.2194 23.9181 42.5833L27.2304 39.2711V50.5976C27.2304 51.4972 27.9597 52.2265 28.8593 52.2265C29.7589 52.2265 30.4881 51.4972 30.4881 50.5976V36.0132L43.5688 22.9325L56.6495 36.0132V63.3099H30.4885V56.0268C30.4885 55.1268 29.7594 54.3976 28.8596 54.3976ZM51.5509 23.5615H55.1321V29.8883L51.5509 26.3071V23.5615Z" fill="#4770AC"/>
<path d="M28.8596 54.3976C27.96 54.3976 27.2308 55.1268 27.2308 56.0264V64.9384C27.2308 65.838 27.96 66.5672 28.8596 66.5672H58.2787C59.1783 66.5672 59.9075 65.838 59.9075 64.9384V39.2707L63.2198 42.583C63.5377 42.9008 63.9547 43.0601 64.3715 43.0601C64.7883 43.0601 65.2051 42.9012 65.5232 42.583C66.1593 41.9468 66.1593 40.9155 65.5232 40.2796L58.3894 33.1458V21.9327C58.3894 21.0331 57.6601 20.3038 56.7605 20.3038H49.9218C49.0222 20.3038 48.293 21.0331 48.293 21.9327V23.0496L44.7205 19.4771C44.0844 18.841 43.053 18.841 42.4171 19.4771L21.6148 40.2799C20.9787 40.916 20.9787 41.9474 21.6148 42.5833C22.2509 43.2194 23.2822 43.2194 23.9181 42.5833L27.2304 39.2711V50.5976C27.2304 51.4972 27.9597 52.2265 28.8593 52.2265C29.7589 52.2265 30.4881 51.4972 30.4881 50.5976V36.0132L43.5688 22.9325L56.6495 36.0132V63.3099H30.4885V56.0268C30.4885 55.1268 29.7594 54.3976 28.8596 54.3976ZM51.5509 23.5615H55.1321V29.8883L51.5509 26.3071V23.5615Z" fill="black" fill-opacity="0.5"/>
<path d="M48.3729 56.1347C49.2725 56.1347 50.0017 55.4054 50.0017 54.5058V40.9853C50.0017 40.0857 49.2725 39.3564 48.3729 39.3564H38.7656C37.866 39.3564 37.1367 40.0857 37.1367 40.9853V54.5058C37.1367 55.4054 37.866 56.1347 38.7656 56.1347H48.3729ZM40.3943 42.6143H46.744V52.8773H40.3943V42.6143Z" fill="#4770AC"/>
<path d="M48.3729 56.1347C49.2725 56.1347 50.0017 55.4054 50.0017 54.5058V40.9853C50.0017 40.0857 49.2725 39.3564 48.3729 39.3564H38.7656C37.866 39.3564 37.1367 40.0857 37.1367 40.9853V54.5058C37.1367 55.4054 37.866 56.1347 38.7656 56.1347H48.3729ZM40.3943 42.6143H46.744V52.8773H40.3943V42.6143Z" fill="black" fill-opacity="0.5"/>
</svg>
