<svg width="91" height="91" viewBox="0 0 91 91" fill="none" xmlns="http://www.w3.org/2000/svg">
<g clip-path="url(#clip0)">
<path d="M31.7277 27.6698C31.0567 27.927 30.4468 28.3206 29.9359 28.8248L27.1756 21.5933L9.63754 28.2878C6.40861 29.5203 4.79049 33.1364 6.02301 36.3653L12.7175 53.9033L19.949 51.143C17.9272 49.0926 17.9497 45.7911 20.0009 43.769C22.0513 41.7472 25.3528 41.7697 27.3749 43.8209C28.3999 44.8596 28.9425 46.2813 28.8704 47.7388L36.1019 44.9784L33.3416 37.7469C36.2176 37.8882 38.6644 35.6715 38.8054 32.7946C38.9463 29.9177 36.73 27.4717 33.8531 27.3308C33.129 27.2935 32.4054 27.41 31.7277 27.6698Z" fill="#7F0102"/>
<path d="M31.7277 27.6698C31.0567 27.927 30.4468 28.3206 29.9359 28.8248L27.1756 21.5933L9.63754 28.2878C6.40861 29.5203 4.79049 33.1364 6.02301 36.3653L12.7175 53.9033L19.949 51.143C17.9272 49.0926 17.9497 45.7911 20.0009 43.769C22.0513 41.7472 25.3528 41.7697 27.3749 43.8209C28.3999 44.8596 28.9425 46.2813 28.8704 47.7388L36.1019 44.9784L33.3416 37.7469C36.2176 37.8882 38.6644 35.6715 38.8054 32.7946C38.9463 29.9177 36.73 27.4717 33.8531 27.3308C33.129 27.2935 32.4054 27.41 31.7277 27.6698Z" fill="white" fill-opacity="0.5"/>
<path d="M52.7914 18.5134C51.5589 15.2845 47.9428 13.6664 44.7139 14.8989L27.1758 21.5934L29.9362 28.8249C31.9865 26.8031 35.2881 26.8255 37.3102 28.8768C39.332 30.9271 39.3095 34.2287 37.2583 36.2508C36.2195 37.2757 34.798 37.8184 33.3404 37.7463L36.1008 44.9778L43.3323 42.2174C43.191 45.0934 45.4077 47.5403 48.2846 47.6813C51.1606 47.8226 53.6075 45.6059 53.7484 42.729C53.8205 41.2715 53.2779 39.85 52.2529 38.8111L59.4844 36.0508L52.7904 18.5138L52.7914 18.5134Z" fill="#4770AC"/>
<path d="M52.7914 18.5134C51.5589 15.2845 47.9428 13.6664 44.7139 14.8989L27.1758 21.5934L29.9362 28.8249C31.9865 26.8031 35.2881 26.8255 37.3102 28.8768C39.332 30.9271 39.3095 34.2287 37.2583 36.2508C36.2195 37.2757 34.798 37.8184 33.3404 37.7463L36.1008 44.9778L43.3323 42.2174C43.191 45.0934 45.4077 47.5403 48.2846 47.6813C51.1606 47.8226 53.6075 45.6059 53.7484 42.729C53.8205 41.2715 53.2779 39.85 52.2529 38.8111L59.4844 36.0508L52.7904 18.5138L52.7914 18.5134Z" fill="white" fill-opacity="0.85"/>
<path d="M37.1287 53.5159C37.8003 53.2606 38.5174 53.1477 39.2343 53.1832L36.1021 44.9774L28.8706 47.7378C29.0119 44.8618 26.7952 42.4149 23.9183 42.274C21.0413 42.133 18.5954 44.3493 18.4544 47.2263C18.3823 48.6837 18.925 50.1054 19.9499 51.1441L12.7183 53.9045L19.4128 71.4425C20.6453 74.6714 24.2614 76.2896 27.4903 75.057L45.0283 68.3626L42.6399 62.1054C40.5895 64.1271 37.288 64.1047 35.2659 62.0534C33.2441 60.0031 33.2665 56.7015 35.3178 54.6794C35.833 54.169 36.4511 53.7734 37.1287 53.5159Z" fill="#4770AC"/>
<path d="M37.1287 53.5159C37.8003 53.2606 38.5174 53.1477 39.2343 53.1832L36.1021 44.9774L28.8706 47.7378C29.0119 44.8618 26.7952 42.4149 23.9183 42.274C21.0413 42.133 18.5954 44.3493 18.4544 47.2263C18.3823 48.6837 18.925 50.1054 19.9499 51.1441L12.7183 53.9045L19.4128 71.4425C20.6453 74.6714 24.2614 76.2896 27.4903 75.057L45.0283 68.3626L42.6399 62.1054C40.5895 64.1271 37.288 64.1047 35.2659 62.0534C33.2441 60.0031 33.2665 56.7015 35.3178 54.6794C35.833 54.169 36.4511 53.7734 37.1287 53.5159Z" fill="white" fill-opacity="0.85"/>
<path d="M36.7255 52.4608C33.4962 53.6924 31.8768 57.3078 33.1082 60.5371C33.9951 62.8632 36.1774 64.4425 38.6641 64.5583L38.7622 62.4759C36.4606 62.371 34.6798 60.4196 34.7856 58.1176C34.8616 56.4565 35.9165 55.0002 37.4693 54.4097C38.0061 54.2048 38.5799 54.1142 39.1539 54.144C39.7291 54.1712 40.218 53.7266 40.2448 53.1504C40.2515 53.0072 40.2283 52.8642 40.1773 52.7307L37.4478 45.5801L42.4023 43.6889C42.4696 44.0316 42.5669 44.3685 42.6915 44.6948C43.7569 47.4685 46.6226 49.1151 49.5551 48.6387L49.2162 46.5812C47.2608 46.8979 45.3507 45.8007 44.6401 43.951C44.4352 43.4142 44.3446 42.8403 44.3744 42.2664C44.4016 41.6912 43.957 41.2023 43.3808 41.1755C43.2385 41.1684 43.0955 41.1916 42.9611 41.243L36.7039 43.6314L34.8127 38.6769C35.1554 38.6097 35.4923 38.5123 35.8186 38.3878C39.0475 37.1553 40.6656 33.5392 39.4331 30.3102C38.2006 27.0813 34.5845 25.4632 31.3556 26.6957C31.0291 26.8203 30.7131 26.9721 30.4128 27.1504L28.5217 22.196L45.0854 15.8734C47.7757 14.8498 50.7872 16.1975 51.8166 18.8855L58.1392 35.4492L51.8819 37.8376C51.3441 38.0429 51.0743 38.6461 51.2809 39.1845C51.3318 39.3181 51.4097 39.4402 51.5102 39.5424C51.9149 39.9505 52.2297 40.4388 52.4346 40.9756L54.3833 40.2318C54.2587 39.9053 54.1068 39.5893 53.9286 39.289L59.8574 37.0259C60.3953 36.8206 60.6651 36.2175 60.4598 35.6797L53.7653 18.1416C52.3236 14.3786 48.1085 12.4924 44.3418 13.9246L9.26566 27.3136C5.50269 28.7555 3.61651 32.9706 5.04872 36.7373L18.4068 71.7325C19.8488 75.4955 24.0639 77.3817 27.8306 75.9495L38.5482 71.8584L37.8044 69.9097L27.0867 74.0008C24.3964 75.0244 21.3849 73.6767 20.3555 70.9887L14.0639 54.5059L20.3211 52.1175C20.8828 51.8551 21.1245 51.1867 20.862 50.625C20.8119 50.5169 20.7439 50.4177 20.6616 50.3308C19.0434 48.6914 19.0611 46.0501 20.7015 44.4316C22.3411 42.8134 24.9822 42.8311 26.6008 44.4715C27.4218 45.3035 27.8558 46.4405 27.798 47.608C27.7496 48.2036 28.1932 48.7252 28.7878 48.774C28.9422 48.7866 29.0961 48.7658 29.2424 48.7133L35.4996 46.3248L37.7311 52.1709C37.3883 52.238 37.0515 52.3352 36.7255 52.4608ZM10.0095 29.2623L26.5732 22.9397L28.9617 29.1969C29.167 29.7348 29.7701 30.0046 30.3086 29.798C30.4421 29.747 30.5642 29.6692 30.6665 29.5687C31.0746 29.164 31.5628 28.8492 32.0996 28.6443C34.2519 27.8228 36.6631 28.9017 37.4846 31.054C38.3062 33.2063 37.2272 35.6174 35.0749 36.439C34.5381 36.6439 33.9643 36.7345 33.3904 36.7047C32.8151 36.6775 32.3262 37.122 32.2994 37.6983C32.2927 37.8415 32.316 37.9844 32.3669 38.118L34.7245 44.2943L29.7768 46.1829C29.7128 45.869 29.624 45.5603 29.5118 45.2603C29.5051 45.2428 29.4992 45.2272 29.4925 45.2097C29.4858 45.1922 29.4846 45.1891 29.4809 45.1794C28.2484 41.9505 24.6323 40.3324 21.4034 41.5649C18.1744 42.7974 16.5563 46.4135 17.7888 49.6424C17.7926 49.6522 17.7967 49.6629 17.8004 49.6727C17.8041 49.6824 17.813 49.7058 17.8197 49.7233C17.9359 50.0216 18.0753 50.3112 18.2368 50.5878L13.2892 52.4764L6.99744 35.9935C5.97476 33.3028 7.32152 30.2917 10.0095 29.2623Z" fill="#4770AC"/>
<path d="M36.7255 52.4608C33.4962 53.6924 31.8768 57.3078 33.1082 60.5371C33.9951 62.8632 36.1774 64.4425 38.6641 64.5583L38.7622 62.4759C36.4606 62.371 34.6798 60.4196 34.7856 58.1176C34.8616 56.4565 35.9165 55.0002 37.4693 54.4097C38.0061 54.2048 38.5799 54.1142 39.1539 54.144C39.7291 54.1712 40.218 53.7266 40.2448 53.1504C40.2515 53.0072 40.2283 52.8642 40.1773 52.7307L37.4478 45.5801L42.4023 43.6889C42.4696 44.0316 42.5669 44.3685 42.6915 44.6948C43.7569 47.4685 46.6226 49.1151 49.5551 48.6387L49.2162 46.5812C47.2608 46.8979 45.3507 45.8007 44.6401 43.951C44.4352 43.4142 44.3446 42.8403 44.3744 42.2664C44.4016 41.6912 43.957 41.2023 43.3808 41.1755C43.2385 41.1684 43.0955 41.1916 42.9611 41.243L36.7039 43.6314L34.8127 38.6769C35.1554 38.6097 35.4923 38.5123 35.8186 38.3878C39.0475 37.1553 40.6656 33.5392 39.4331 30.3102C38.2006 27.0813 34.5845 25.4632 31.3556 26.6957C31.0291 26.8203 30.7131 26.9721 30.4128 27.1504L28.5217 22.196L45.0854 15.8734C47.7757 14.8498 50.7872 16.1975 51.8166 18.8855L58.1392 35.4492L51.8819 37.8376C51.3441 38.0429 51.0743 38.6461 51.2809 39.1845C51.3318 39.3181 51.4097 39.4402 51.5102 39.5424C51.9149 39.9505 52.2297 40.4388 52.4346 40.9756L54.3833 40.2318C54.2587 39.9053 54.1068 39.5893 53.9286 39.289L59.8574 37.0259C60.3953 36.8206 60.6651 36.2175 60.4598 35.6797L53.7653 18.1416C52.3236 14.3786 48.1085 12.4924 44.3418 13.9246L9.26566 27.3136C5.50269 28.7555 3.61651 32.9706 5.04872 36.7373L18.4068 71.7325C19.8488 75.4955 24.0639 77.3817 27.8306 75.9495L38.5482 71.8584L37.8044 69.9097L27.0867 74.0008C24.3964 75.0244 21.3849 73.6767 20.3555 70.9887L14.0639 54.5059L20.3211 52.1175C20.8828 51.8551 21.1245 51.1867 20.862 50.625C20.8119 50.5169 20.7439 50.4177 20.6616 50.3308C19.0434 48.6914 19.0611 46.0501 20.7015 44.4316C22.3411 42.8134 24.9822 42.8311 26.6008 44.4715C27.4218 45.3035 27.8558 46.4405 27.798 47.608C27.7496 48.2036 28.1932 48.7252 28.7878 48.774C28.9422 48.7866 29.0961 48.7658 29.2424 48.7133L35.4996 46.3248L37.7311 52.1709C37.3883 52.238 37.0515 52.3352 36.7255 52.4608ZM10.0095 29.2623L26.5732 22.9397L28.9617 29.1969C29.167 29.7348 29.7701 30.0046 30.3086 29.798C30.4421 29.747 30.5642 29.6692 30.6665 29.5687C31.0746 29.164 31.5628 28.8492 32.0996 28.6443C34.2519 27.8228 36.6631 28.9017 37.4846 31.054C38.3062 33.2063 37.2272 35.6174 35.0749 36.439C34.5381 36.6439 33.9643 36.7345 33.3904 36.7047C32.8151 36.6775 32.3262 37.122 32.2994 37.6983C32.2927 37.8415 32.316 37.9844 32.3669 38.118L34.7245 44.2943L29.7768 46.1829C29.7128 45.869 29.624 45.5603 29.5118 45.2603C29.5051 45.2428 29.4992 45.2272 29.4925 45.2097C29.4858 45.1922 29.4846 45.1891 29.4809 45.1794C28.2484 41.9505 24.6323 40.3324 21.4034 41.5649C18.1744 42.7974 16.5563 46.4135 17.7888 49.6424C17.7926 49.6522 17.7967 49.6629 17.8004 49.6727C17.8041 49.6824 17.813 49.7058 17.8197 49.7233C17.9359 50.0216 18.0753 50.3112 18.2368 50.5878L13.2892 52.4764L6.99744 35.9935C5.97476 33.3028 7.32152 30.2917 10.0095 29.2623Z" fill="black" fill-opacity="0.5"/>
<path d="M36.7255 52.4608C33.4962 53.6924 31.8768 57.3078 33.1082 60.5371C33.9951 62.8632 36.1774 64.4425 38.6641 64.5583L38.7622 62.4759C36.4606 62.371 34.6798 60.4196 34.7856 58.1176C34.8616 56.4565 35.9165 55.0002 37.4693 54.4097C38.0061 54.2048 38.5799 54.1142 39.1539 54.144C39.7291 54.1712 40.218 53.7266 40.2448 53.1504C40.2515 53.0072 40.2283 52.8642 40.1773 52.7307L37.4478 45.5801L42.4023 43.6889C42.4696 44.0316 42.5669 44.3685 42.6915 44.6948C43.7569 47.4685 46.6226 49.1151 49.5551 48.6387L49.2162 46.5812C47.2608 46.8979 45.3507 45.8007 44.6401 43.951C44.4352 43.4142 44.3446 42.8403 44.3744 42.2664C44.4016 41.6912 43.957 41.2023 43.3808 41.1755C43.2385 41.1684 43.0955 41.1916 42.9611 41.243L36.7039 43.6314L34.8127 38.6769C35.1554 38.6097 35.4923 38.5123 35.8186 38.3878C39.0475 37.1553 40.6656 33.5392 39.4331 30.3102C38.2006 27.0813 34.5845 25.4632 31.3556 26.6957C31.0291 26.8203 30.7131 26.9721 30.4128 27.1504L28.5217 22.196L45.0854 15.8734C47.7757 14.8498 50.7872 16.1975 51.8166 18.8855L58.1392 35.4492L51.8819 37.8376C51.3441 38.0429 51.0743 38.6461 51.2809 39.1845C51.3318 39.3181 51.4097 39.4402 51.5102 39.5424C51.9149 39.9505 52.2297 40.4388 52.4346 40.9756L54.3833 40.2318C54.2587 39.9053 54.1068 39.5893 53.9286 39.289L59.8574 37.0259C60.3953 36.8206 60.6651 36.2175 60.4598 35.6797L53.7653 18.1416C52.3236 14.3786 48.1085 12.4924 44.3418 13.9246L9.26566 27.3136C5.50269 28.7555 3.61651 32.9706 5.04872 36.7373L18.4068 71.7325C19.8488 75.4955 24.0639 77.3817 27.8306 75.9495L38.5482 71.8584L37.8044 69.9097L27.0867 74.0008C24.3964 75.0244 21.3849 73.6767 20.3555 70.9887L14.0639 54.5059L20.3211 52.1175C20.8828 51.8551 21.1245 51.1867 20.862 50.625C20.8119 50.5169 20.7439 50.4177 20.6616 50.3308C19.0434 48.6914 19.0611 46.0501 20.7015 44.4316C22.3411 42.8134 24.9822 42.8311 26.6008 44.4715C27.4218 45.3035 27.8558 46.4405 27.798 47.608C27.7496 48.2036 28.1932 48.7252 28.7878 48.774C28.9422 48.7866 29.0961 48.7658 29.2424 48.7133L35.4996 46.3248L37.7311 52.1709C37.3883 52.238 37.0515 52.3352 36.7255 52.4608ZM10.0095 29.2623L26.5732 22.9397L28.9617 29.1969C29.167 29.7348 29.7701 30.0046 30.3086 29.798C30.4421 29.747 30.5642 29.6692 30.6665 29.5687C31.0746 29.164 31.5628 28.8492 32.0996 28.6443C34.2519 27.8228 36.6631 28.9017 37.4846 31.054C38.3062 33.2063 37.2272 35.6174 35.0749 36.439C34.5381 36.6439 33.9643 36.7345 33.3904 36.7047C32.8151 36.6775 32.3262 37.122 32.2994 37.6983C32.2927 37.8415 32.316 37.9844 32.3669 38.118L34.7245 44.2943L29.7768 46.1829C29.7128 45.869 29.624 45.5603 29.5118 45.2603C29.5051 45.2428 29.4992 45.2272 29.4925 45.2097C29.4858 45.1922 29.4846 45.1891 29.4809 45.1794C28.2484 41.9505 24.6323 40.3324 21.4034 41.5649C18.1744 42.7974 16.5563 46.4135 17.7888 49.6424C17.7926 49.6522 17.7967 49.6629 17.8004 49.6727C17.8041 49.6824 17.813 49.7058 17.8197 49.7233C17.9359 50.0216 18.0753 50.3112 18.2368 50.5878L13.2892 52.4764L6.99744 35.9935C5.97476 33.3028 7.32152 30.2917 10.0095 29.2623Z" stroke="#4770AC" stroke-width="0.5"/>
<path d="M36.7255 52.4608C33.4962 53.6924 31.8768 57.3078 33.1082 60.5371C33.9951 62.8632 36.1774 64.4425 38.6641 64.5583L38.7622 62.4759C36.4606 62.371 34.6798 60.4196 34.7856 58.1176C34.8616 56.4565 35.9165 55.0002 37.4693 54.4097C38.0061 54.2048 38.5799 54.1142 39.1539 54.144C39.7291 54.1712 40.218 53.7266 40.2448 53.1504C40.2515 53.0072 40.2283 52.8642 40.1773 52.7307L37.4478 45.5801L42.4023 43.6889C42.4696 44.0316 42.5669 44.3685 42.6915 44.6948C43.7569 47.4685 46.6226 49.1151 49.5551 48.6387L49.2162 46.5812C47.2608 46.8979 45.3507 45.8007 44.6401 43.951C44.4352 43.4142 44.3446 42.8403 44.3744 42.2664C44.4016 41.6912 43.957 41.2023 43.3808 41.1755C43.2385 41.1684 43.0955 41.1916 42.9611 41.243L36.7039 43.6314L34.8127 38.6769C35.1554 38.6097 35.4923 38.5123 35.8186 38.3878C39.0475 37.1553 40.6656 33.5392 39.4331 30.3102C38.2006 27.0813 34.5845 25.4632 31.3556 26.6957C31.0291 26.8203 30.7131 26.9721 30.4128 27.1504L28.5217 22.196L45.0854 15.8734C47.7757 14.8498 50.7872 16.1975 51.8166 18.8855L58.1392 35.4492L51.8819 37.8376C51.3441 38.0429 51.0743 38.6461 51.2809 39.1845C51.3318 39.3181 51.4097 39.4402 51.5102 39.5424C51.9149 39.9505 52.2297 40.4388 52.4346 40.9756L54.3833 40.2318C54.2587 39.9053 54.1068 39.5893 53.9286 39.289L59.8574 37.0259C60.3953 36.8206 60.6651 36.2175 60.4598 35.6797L53.7653 18.1416C52.3236 14.3786 48.1085 12.4924 44.3418 13.9246L9.26566 27.3136C5.50269 28.7555 3.61651 32.9706 5.04872 36.7373L18.4068 71.7325C19.8488 75.4955 24.0639 77.3817 27.8306 75.9495L38.5482 71.8584L37.8044 69.9097L27.0867 74.0008C24.3964 75.0244 21.3849 73.6767 20.3555 70.9887L14.0639 54.5059L20.3211 52.1175C20.8828 51.8551 21.1245 51.1867 20.862 50.625C20.8119 50.5169 20.7439 50.4177 20.6616 50.3308C19.0434 48.6914 19.0611 46.0501 20.7015 44.4316C22.3411 42.8134 24.9822 42.8311 26.6008 44.4715C27.4218 45.3035 27.8558 46.4405 27.798 47.608C27.7496 48.2036 28.1932 48.7252 28.7878 48.774C28.9422 48.7866 29.0961 48.7658 29.2424 48.7133L35.4996 46.3248L37.7311 52.1709C37.3883 52.238 37.0515 52.3352 36.7255 52.4608ZM10.0095 29.2623L26.5732 22.9397L28.9617 29.1969C29.167 29.7348 29.7701 30.0046 30.3086 29.798C30.4421 29.747 30.5642 29.6692 30.6665 29.5687C31.0746 29.164 31.5628 28.8492 32.0996 28.6443C34.2519 27.8228 36.6631 28.9017 37.4846 31.054C38.3062 33.2063 37.2272 35.6174 35.0749 36.439C34.5381 36.6439 33.9643 36.7345 33.3904 36.7047C32.8151 36.6775 32.3262 37.122 32.2994 37.6983C32.2927 37.8415 32.316 37.9844 32.3669 38.118L34.7245 44.2943L29.7768 46.1829C29.7128 45.869 29.624 45.5603 29.5118 45.2603C29.5051 45.2428 29.4992 45.2272 29.4925 45.2097C29.4858 45.1922 29.4846 45.1891 29.4809 45.1794C28.2484 41.9505 24.6323 40.3324 21.4034 41.5649C18.1744 42.7974 16.5563 46.4135 17.7888 49.6424C17.7926 49.6522 17.7967 49.6629 17.8004 49.6727C17.8041 49.6824 17.813 49.7058 17.8197 49.7233C17.9359 50.0216 18.0753 50.3112 18.2368 50.5878L13.2892 52.4764L6.99744 35.9935C5.97476 33.3028 7.32152 30.2917 10.0095 29.2623Z" stroke="black" stroke-opacity="0.5" stroke-width="0.5"/>
</g>
<path d="M84.0584 63.6597L79.6263 52.0486C79.1409 50.7771 78.0654 49.8223 76.7453 49.4902L67.4616 47.1577C66.8393 47.0012 66.1834 47.0406 65.5832 47.2696L59.6846 49.5212L66.1456 66.155C66.8447 67.8785 68.5608 68.9671 70.4179 68.8666L84.0584 63.6599L84.0584 63.6597Z" fill="#FFF1E8"/>
<path d="M78.2125 65.8911L71.3922 68.4945C69.2399 69.316 66.8287 68.2371 66.0072 66.0848L64.5195 62.1875L71.3399 59.5841L78.2125 65.8911Z" fill="#F5D8C3"/>
<path d="M71.9912 53.6423L59.5412 39.5292L53.7439 44.6635C56.365 45.8655 57.5147 48.9652 56.3124 51.5853C55.11 54.2055 52.0107 55.3562 49.3905 54.1538C48.056 53.5414 47.0406 52.3962 46.5938 50.9972L40.7974 56.1312L46.6229 62.7363C45.9391 62.9537 45.3078 63.312 44.7693 63.7877C42.6263 65.7242 42.4595 69.0306 44.3961 71.1738C46.2993 73.2793 49.5352 73.4831 51.6868 71.6303C52.2248 71.1537 52.6579 70.5686 52.9576 69.915L57.3987 74.9522L71.4577 62.5006C74.0476 60.1993 74.2865 56.2367 71.9912 53.6423Z" fill="#4770AC"/>
<path d="M71.9912 53.6423L59.5412 39.5292L53.7439 44.6635C56.365 45.8655 57.5147 48.9652 56.3124 51.5853C55.11 54.2055 52.0107 55.3562 49.3905 54.1538C48.056 53.5414 47.0406 52.3962 46.5938 50.9972L40.7974 56.1312L46.6229 62.7363C45.9391 62.9537 45.3078 63.312 44.7693 63.7877C42.6263 65.7242 42.4595 69.0306 44.3961 71.1738C46.2993 73.2793 49.5352 73.4831 51.6868 71.6303C52.2248 71.1537 52.6579 70.5686 52.9576 69.915L57.3987 74.9522L71.4577 62.5006C74.0476 60.1993 74.2865 56.2367 71.9912 53.6423Z" fill="white" fill-opacity="0.25"/>
<path d="M67.5558 55.4669C66.2604 54.8718 64.7277 55.4391 64.1326 56.7345C63.5375 58.03 64.1048 59.5627 65.4002 60.1578C65.4164 60.165 65.4316 60.1726 65.4473 60.1788L70.1349 62.2764C71.3675 65.5054 74.9836 67.1235 78.2125 65.891L84.0585 63.6595L83.6866 62.6852L67.5558 55.4669Z" fill="#FFF1E8"/>
<path d="M76.9916 48.4763L66.6474 45.9626L60.2927 38.758C59.9121 38.325 59.254 38.2826 58.8211 38.6634C58.8052 38.6773 58.7903 38.6908 58.7757 38.7052L53.5118 43.9239C53.1173 44.3144 53.0985 44.9468 53.4685 45.3604C53.6779 45.593 53.8551 45.762 54.0412 45.9367C54.2273 46.1113 54.4004 46.2751 54.6392 46.5467C56.1667 48.2789 56.0083 50.9202 54.2841 52.4569C52.5561 53.9806 49.9197 53.8147 48.3962 52.0867C48.0141 51.6533 47.7262 51.1447 47.5508 50.5943C47.3738 50.0457 46.7859 49.7455 46.2382 49.9221C46.1012 49.9666 45.9745 50.0384 45.8661 50.1346L40.0697 55.2685C39.6391 55.6495 39.5981 56.3081 39.9793 56.7397L44.887 62.3032C44.5869 62.4847 44.3047 62.6929 44.0416 62.9251C41.441 65.2127 41.1871 69.1742 43.4737 71.7754C45.7613 74.3761 49.7228 74.6299 52.324 72.3433C52.5916 72.1083 52.8389 71.8498 53.0633 71.5721L56.5818 75.5606C56.9631 75.9922 57.6217 76.0332 58.0537 75.6528L58.0553 75.6511L66.3207 68.329C67.4243 69.4013 68.9211 69.9709 70.4582 69.9065L70.3674 67.8202C69.4611 67.8558 68.5761 67.5406 67.8967 66.9393L70.4122 64.7121C72.4129 67.0584 75.6757 67.8882 78.5543 66.7849L77.8105 64.8362C75.1208 65.8439 72.12 64.5011 71.0793 61.8241C70.9807 61.566 70.7835 61.3565 70.5308 61.2442L65.8432 59.1466C65.1467 58.8309 64.7842 58.0539 64.9922 57.318C65.1127 56.8881 65.4161 56.5334 65.8217 56.3473C66.2254 56.153 66.694 56.1495 67.0998 56.3384L76.4994 60.5445L77.3512 58.6409L74.5699 57.3963C74.4997 55.7241 73.8556 54.127 72.7445 52.8744L69.057 48.6948L76.4925 50.5014C77.482 50.7511 78.2877 51.4671 78.6527 52.4207L83.4568 65.0061L85.4055 64.2623L80.6013 51.6764C79.9922 50.0849 78.6443 48.8904 76.9916 48.4763ZM72.3206 56.3889L67.951 54.4345C66.1344 53.5941 63.9804 54.3851 63.14 56.2017C62.2996 58.0183 63.0906 60.1723 64.9072 61.0127C64.9345 61.0258 64.9628 61.0384 64.9907 61.05L69.2489 62.9555L57.4592 73.3978L53.708 69.1444C53.4746 68.8807 53.1237 68.7512 52.7751 68.8028C52.7 68.8137 52.6259 68.8329 52.5547 68.8601C52.2995 68.9575 52.0928 69.1503 51.9787 69.3982C50.9781 71.4736 48.4852 72.3448 46.4089 71.3446C44.3335 70.344 43.4623 67.8511 44.4626 65.7748C44.6981 65.2864 45.0256 64.8488 45.4286 64.4862C45.6945 64.253 45.9911 64.0561 46.3089 63.9001C46.5022 63.7985 46.7042 63.7135 46.9119 63.6464C47.4606 63.4694 47.7608 62.8815 47.5842 62.3339C47.54 62.1977 47.4686 62.0721 47.3739 61.9643L42.2352 56.1408L46.2081 52.6227C48.0272 55.5608 51.8845 56.4684 54.8226 54.6492C55.1232 54.463 55.4066 54.2522 55.6713 54.0183C58.2554 51.7192 58.495 47.7643 56.2081 45.1688C56.027 44.9632 55.8736 44.8041 55.731 44.6644L59.4553 40.9688L71.1792 54.2529C71.7224 54.8658 72.1134 55.5973 72.3206 56.3889Z" fill="#4770AC"/>
<path d="M76.9916 48.4763L66.6474 45.9626L60.2927 38.758C59.9121 38.325 59.254 38.2826 58.8211 38.6634C58.8052 38.6773 58.7903 38.6908 58.7757 38.7052L53.5118 43.9239C53.1173 44.3144 53.0985 44.9468 53.4685 45.3604C53.6779 45.593 53.8551 45.762 54.0412 45.9367C54.2273 46.1113 54.4004 46.2751 54.6392 46.5467C56.1667 48.2789 56.0083 50.9202 54.2841 52.4569C52.5561 53.9806 49.9197 53.8147 48.3962 52.0867C48.0141 51.6533 47.7262 51.1447 47.5508 50.5943C47.3738 50.0457 46.7859 49.7455 46.2382 49.9221C46.1012 49.9666 45.9745 50.0384 45.8661 50.1346L40.0697 55.2685C39.6391 55.6495 39.5981 56.3081 39.9793 56.7397L44.887 62.3032C44.5869 62.4847 44.3047 62.6929 44.0416 62.9251C41.441 65.2127 41.1871 69.1742 43.4737 71.7754C45.7613 74.3761 49.7228 74.6299 52.324 72.3433C52.5916 72.1083 52.8389 71.8498 53.0633 71.5721L56.5818 75.5606C56.9631 75.9922 57.6217 76.0332 58.0537 75.6528L58.0553 75.6511L66.3207 68.329C67.4243 69.4013 68.9211 69.9709 70.4582 69.9065L70.3674 67.8202C69.4611 67.8558 68.5761 67.5406 67.8967 66.9393L70.4122 64.7121C72.4129 67.0584 75.6757 67.8882 78.5543 66.7849L77.8105 64.8362C75.1208 65.8439 72.12 64.5011 71.0793 61.8241C70.9807 61.566 70.7835 61.3565 70.5308 61.2442L65.8432 59.1466C65.1467 58.8309 64.7842 58.0539 64.9922 57.318C65.1127 56.8881 65.4161 56.5334 65.8217 56.3473C66.2254 56.153 66.694 56.1495 67.0998 56.3384L76.4994 60.5445L77.3512 58.6409L74.5699 57.3963C74.4997 55.7241 73.8556 54.127 72.7445 52.8744L69.057 48.6948L76.4925 50.5014C77.482 50.7511 78.2877 51.4671 78.6527 52.4207L83.4568 65.0061L85.4055 64.2623L80.6013 51.6764C79.9922 50.0849 78.6443 48.8904 76.9916 48.4763ZM72.3206 56.3889L67.951 54.4345C66.1344 53.5941 63.9804 54.3851 63.14 56.2017C62.2996 58.0183 63.0906 60.1723 64.9072 61.0127C64.9345 61.0258 64.9628 61.0384 64.9907 61.05L69.2489 62.9555L57.4592 73.3978L53.708 69.1444C53.4746 68.8807 53.1237 68.7512 52.7751 68.8028C52.7 68.8137 52.6259 68.8329 52.5547 68.8601C52.2995 68.9575 52.0928 69.1503 51.9787 69.3982C50.9781 71.4736 48.4852 72.3448 46.4089 71.3446C44.3335 70.344 43.4623 67.8511 44.4626 65.7748C44.6981 65.2864 45.0256 64.8488 45.4286 64.4862C45.6945 64.253 45.9911 64.0561 46.3089 63.9001C46.5022 63.7985 46.7042 63.7135 46.9119 63.6464C47.4606 63.4694 47.7608 62.8815 47.5842 62.3339C47.54 62.1977 47.4686 62.0721 47.3739 61.9643L42.2352 56.1408L46.2081 52.6227C48.0272 55.5608 51.8845 56.4684 54.8226 54.6492C55.1232 54.463 55.4066 54.2522 55.6713 54.0183C58.2554 51.7192 58.495 47.7643 56.2081 45.1688C56.027 44.9632 55.8736 44.8041 55.731 44.6644L59.4553 40.9688L71.1792 54.2529C71.7224 54.8658 72.1134 55.5973 72.3206 56.3889Z" fill="black" fill-opacity="0.5"/>
<path d="M76.9916 48.4763L66.6474 45.9626L60.2927 38.758C59.9121 38.325 59.254 38.2826 58.8211 38.6634C58.8052 38.6773 58.7903 38.6908 58.7757 38.7052L53.5118 43.9239C53.1173 44.3144 53.0985 44.9468 53.4685 45.3604C53.6779 45.593 53.8551 45.762 54.0412 45.9367C54.2273 46.1113 54.4004 46.2751 54.6392 46.5467C56.1667 48.2789 56.0083 50.9202 54.2841 52.4569C52.5561 53.9806 49.9197 53.8147 48.3962 52.0867C48.0141 51.6533 47.7262 51.1447 47.5508 50.5943C47.3738 50.0457 46.7859 49.7455 46.2382 49.9221C46.1012 49.9666 45.9745 50.0384 45.8661 50.1346L40.0697 55.2685C39.6391 55.6495 39.5981 56.3081 39.9793 56.7397L44.887 62.3032C44.5869 62.4847 44.3047 62.6929 44.0416 62.9251C41.441 65.2127 41.1871 69.1742 43.4737 71.7754C45.7613 74.3761 49.7228 74.6299 52.324 72.3433C52.5916 72.1083 52.8389 71.8498 53.0633 71.5721L56.5818 75.5606C56.9631 75.9922 57.6217 76.0332 58.0537 75.6528L58.0553 75.6511L66.3207 68.329C67.4243 69.4013 68.9211 69.9709 70.4582 69.9065L70.3674 67.8202C69.4611 67.8558 68.5761 67.5406 67.8967 66.9393L70.4122 64.7121C72.4129 67.0584 75.6757 67.8882 78.5543 66.7849L77.8105 64.8362C75.1208 65.8439 72.12 64.5011 71.0793 61.8241C70.9807 61.566 70.7835 61.3565 70.5308 61.2442L65.8432 59.1466C65.1467 58.8309 64.7842 58.0539 64.9922 57.318C65.1127 56.8881 65.4161 56.5334 65.8217 56.3473C66.2254 56.153 66.694 56.1495 67.0998 56.3384L76.4994 60.5445L77.3512 58.6409L74.5699 57.3963C74.4997 55.7241 73.8556 54.127 72.7445 52.8744L69.057 48.6948L76.4925 50.5014C77.482 50.7511 78.2877 51.4671 78.6527 52.4207L83.4568 65.0061L85.4055 64.2623L80.6013 51.6764C79.9922 50.0849 78.6443 48.8904 76.9916 48.4763ZM72.3206 56.3889L67.951 54.4345C66.1344 53.5941 63.9804 54.3851 63.14 56.2017C62.2996 58.0183 63.0906 60.1723 64.9072 61.0127C64.9345 61.0258 64.9628 61.0384 64.9907 61.05L69.2489 62.9555L57.4592 73.3978L53.708 69.1444C53.4746 68.8807 53.1237 68.7512 52.7751 68.8028C52.7 68.8137 52.6259 68.8329 52.5547 68.8601C52.2995 68.9575 52.0928 69.1503 51.9787 69.3982C50.9781 71.4736 48.4852 72.3448 46.4089 71.3446C44.3335 70.344 43.4623 67.8511 44.4626 65.7748C44.6981 65.2864 45.0256 64.8488 45.4286 64.4862C45.6945 64.253 45.9911 64.0561 46.3089 63.9001C46.5022 63.7985 46.7042 63.7135 46.9119 63.6464C47.4606 63.4694 47.7608 62.8815 47.5842 62.3339C47.54 62.1977 47.4686 62.0721 47.3739 61.9643L42.2352 56.1408L46.2081 52.6227C48.0272 55.5608 51.8845 56.4684 54.8226 54.6492C55.1232 54.463 55.4066 54.2522 55.6713 54.0183C58.2554 51.7192 58.495 47.7643 56.2081 45.1688C56.027 44.9632 55.8736 44.8041 55.731 44.6644L59.4553 40.9688L71.1792 54.2529C71.7224 54.8658 72.1134 55.5973 72.3206 56.3889Z" stroke="#4770AC" stroke-width="0.2"/>
<path d="M76.9916 48.4763L66.6474 45.9626L60.2927 38.758C59.9121 38.325 59.254 38.2826 58.8211 38.6634C58.8052 38.6773 58.7903 38.6908 58.7757 38.7052L53.5118 43.9239C53.1173 44.3144 53.0985 44.9468 53.4685 45.3604C53.6779 45.593 53.8551 45.762 54.0412 45.9367C54.2273 46.1113 54.4004 46.2751 54.6392 46.5467C56.1667 48.2789 56.0083 50.9202 54.2841 52.4569C52.5561 53.9806 49.9197 53.8147 48.3962 52.0867C48.0141 51.6533 47.7262 51.1447 47.5508 50.5943C47.3738 50.0457 46.7859 49.7455 46.2382 49.9221C46.1012 49.9666 45.9745 50.0384 45.8661 50.1346L40.0697 55.2685C39.6391 55.6495 39.5981 56.3081 39.9793 56.7397L44.887 62.3032C44.5869 62.4847 44.3047 62.6929 44.0416 62.9251C41.441 65.2127 41.1871 69.1742 43.4737 71.7754C45.7613 74.3761 49.7228 74.6299 52.324 72.3433C52.5916 72.1083 52.8389 71.8498 53.0633 71.5721L56.5818 75.5606C56.9631 75.9922 57.6217 76.0332 58.0537 75.6528L58.0553 75.6511L66.3207 68.329C67.4243 69.4013 68.9211 69.9709 70.4582 69.9065L70.3674 67.8202C69.4611 67.8558 68.5761 67.5406 67.8967 66.9393L70.4122 64.7121C72.4129 67.0584 75.6757 67.8882 78.5543 66.7849L77.8105 64.8362C75.1208 65.8439 72.12 64.5011 71.0793 61.8241C70.9807 61.566 70.7835 61.3565 70.5308 61.2442L65.8432 59.1466C65.1467 58.8309 64.7842 58.0539 64.9922 57.318C65.1127 56.8881 65.4161 56.5334 65.8217 56.3473C66.2254 56.153 66.694 56.1495 67.0998 56.3384L76.4994 60.5445L77.3512 58.6409L74.5699 57.3963C74.4997 55.7241 73.8556 54.127 72.7445 52.8744L69.057 48.6948L76.4925 50.5014C77.482 50.7511 78.2877 51.4671 78.6527 52.4207L83.4568 65.0061L85.4055 64.2623L80.6013 51.6764C79.9922 50.0849 78.6443 48.8904 76.9916 48.4763ZM72.3206 56.3889L67.951 54.4345C66.1344 53.5941 63.9804 54.3851 63.14 56.2017C62.2996 58.0183 63.0906 60.1723 64.9072 61.0127C64.9345 61.0258 64.9628 61.0384 64.9907 61.05L69.2489 62.9555L57.4592 73.3978L53.708 69.1444C53.4746 68.8807 53.1237 68.7512 52.7751 68.8028C52.7 68.8137 52.6259 68.8329 52.5547 68.8601C52.2995 68.9575 52.0928 69.1503 51.9787 69.3982C50.9781 71.4736 48.4852 72.3448 46.4089 71.3446C44.3335 70.344 43.4623 67.8511 44.4626 65.7748C44.6981 65.2864 45.0256 64.8488 45.4286 64.4862C45.6945 64.253 45.9911 64.0561 46.3089 63.9001C46.5022 63.7985 46.7042 63.7135 46.9119 63.6464C47.4606 63.4694 47.7608 62.8815 47.5842 62.3339C47.54 62.1977 47.4686 62.0721 47.3739 61.9643L42.2352 56.1408L46.2081 52.6227C48.0272 55.5608 51.8845 56.4684 54.8226 54.6492C55.1232 54.463 55.4066 54.2522 55.6713 54.0183C58.2554 51.7192 58.495 47.7643 56.2081 45.1688C56.027 44.9632 55.8736 44.8041 55.731 44.6644L59.4553 40.9688L71.1792 54.2529C71.7224 54.8658 72.1134 55.5973 72.3206 56.3889Z" stroke="black" stroke-opacity="0.5" stroke-width="0.2"/>
<defs>
<clipPath id="clip0">
<rect width="63.528" height="63.528" fill="white" transform="translate(2 30.0869) rotate(-20.8925)"/>
</clipPath>
</defs>
</svg>
